<?xml version="1.0" encoding="UTF-8"?>
<svg id="Capa_1" data-name="Capa 1" xmlns="http://www.w3.org/2000/svg" viewBox="0 0 1080 1080">
  <defs>
    <style>
      .cls-1 {
        stroke-width: 3.45px;
      }

      .cls-1, .cls-2, .cls-3, .cls-4, .cls-5, .cls-6, .cls-7, .cls-8, .cls-9, .cls-10, .cls-11 {
        stroke-miterlimit: 10;
      }

      .cls-1, .cls-2, .cls-3, .cls-4, .cls-5, .cls-8, .cls-9, .cls-10, .cls-11 {
        stroke: #fff;
      }

      .cls-1, .cls-2, .cls-3, .cls-4, .cls-6, .cls-7, .cls-9, .cls-11 {
        fill: none;
      }

      .cls-2 {
        stroke-width: 3.45px;
      }

      .cls-3, .cls-10 {
        stroke-width: 3.45px;
      }

      .cls-4 {
        stroke-width: 3.45px;
      }

      .cls-5, .cls-8, .cls-12, .cls-10 {
        fill: #fff;
      }

      .cls-5, .cls-9 {
        stroke-width: 1.32px;
      }

      .cls-6 {
        stroke-width: 2.13px;
      }

      .cls-6, .cls-7 {
        stroke: #00c1ca;
      }

      .cls-7 {
        stroke-width: 2.13px;
      }

      .cls-8, .cls-11 {
        stroke-width: 2.13px;
      }

      .cls-13 {
        fill: #00c1ca;
      }
    </style>
  </defs>
  <g>
    <line class="cls-6" x1="540" y1="652.28" x2="540" y2="540.47"/>
    <line class="cls-6" x1="646.34" y1="575.02" x2="540" y2="540.47"/>
    <line class="cls-6" x1="605.72" y1="450.01" x2="540" y2="540.47"/>
    <line class="cls-6" x1="474.28" y1="450.01" x2="540" y2="540.47"/>
    <line class="cls-6" x1="433.66" y1="575.02" x2="540" y2="540.47"/>
    <circle class="cls-13" cx="540" cy="540.15" r="50"/>
    <g>
      <g>
        <line class="cls-6" x1="540" y1="540.47" x2="540" y2="403.6"/>
        <g>
          <line class="cls-6" x1="540" y1="312.75" x2="540" y2="347.45"/>
          <line class="cls-6" x1="509.07" y1="256.6" x2="483.85" y2="256.6"/>
          <line class="cls-7" x1="540" y1="347.45" x2="540" y2="347.45"/>
          <path class="cls-7" d="M585.91,335.02c-13.47,7.9-29.16,12.43-45.91,12.43"/>
          <path class="cls-7" d="M618.97,301.56c-7.9,13.84-19.33,25.4-33.06,33.46"/>
          <path class="cls-7" d="M630.85,256.6c0,16.36-4.32,31.7-11.89,44.96"/>
          <path class="cls-7" d="M618.7,211.17c7.73,13.36,12.15,28.88,12.15,45.43"/>
          <path class="cls-7" d="M585.46,177.92c13.78,7.98,25.27,19.47,33.24,33.26"/>
          <path class="cls-7" d="M540,165.75c16.56,0,32.09,4.43,45.46,12.17"/>
          <line class="cls-7" x1="540" y1="165.75" x2="540" y2="165.75"/>
          <path class="cls-7" d="M494.57,177.9c13.36-7.73,28.88-12.15,45.43-12.15"/>
          <path class="cls-7" d="M461.3,211.17c7.98-13.79,19.48-25.29,33.27-33.27"/>
          <path class="cls-7" d="M449.15,256.6c0-16.55,4.42-32.07,12.16-45.43"/>
          <line class="cls-7" x1="540" y1="312.75" x2="540" y2="312.75"/>
          <path class="cls-7" d="M568.09,305.23c-8.26,4.78-17.86,7.52-28.09,7.52"/>
          <path class="cls-7" d="M588.64,284.68c-4.93,8.52-12.03,15.62-20.55,20.55"/>
          <path class="cls-7" d="M596.15,256.6c0,10.23-2.73,19.82-7.51,28.08"/>
          <path class="cls-7" d="M588.64,228.52c4.78,8.26,7.51,17.85,7.51,28.08"/>
          <path class="cls-7" d="M568.08,207.96c8.52,4.93,15.63,12.04,20.56,20.56"/>
          <path class="cls-7" d="M540,200.45c10.23,0,19.82,2.74,28.08,7.51"/>
          <line class="cls-7" x1="540" y1="200.45" x2="540" y2="200.45"/>
          <path class="cls-7" d="M511.92,207.96c8.26-4.78,17.85-7.51,28.08-7.51"/>
          <path class="cls-7" d="M491.37,228.51c4.93-8.52,12.03-15.62,20.55-20.54"/>
          <path class="cls-7" d="M483.85,256.6c0-10.23,2.74-19.83,7.52-28.09"/>
          <path class="cls-7" d="M666.73,182.07c12.88,21.85,20.27,47.33,20.27,74.53"/>
          <path class="cls-7" d="M613.51,129.27c21.97,12.71,40.34,30.94,53.22,52.79"/>
          <path class="cls-7" d="M540,109.6c26.78,0,51.89,7.16,73.51,19.67"/>
          <path class="cls-7" d="M466.5,129.27c21.62-12.51,46.72-19.67,73.5-19.67"/>
          <path class="cls-7" d="M412.67,183.1c12.91-22.32,31.52-40.92,53.83-53.83"/>
          <path class="cls-7" d="M393,256.6c0-26.78,7.16-51.88,19.67-73.5"/>
          <path class="cls-7" d="M613.51,383.93c-21.62,12.51-46.73,19.67-73.51,19.67"/>
          <path class="cls-7" d="M667.33,330.1c-12.91,22.31-31.51,40.92-53.82,53.83"/>
          <path class="cls-7" d="M687,256.6c0,26.78-7.16,51.88-19.67,73.5"/>
          <circle class="cls-13" cx="540" cy="256.6" r="30.93"/>
          <line class="cls-6" x1="540" y1="287.53" x2="540" y2="256.6"/>
          <line class="cls-6" x1="393" y1="256.6" x2="449.14" y2="256.6"/>
        </g>
      </g>
      <g>
        <circle class="cls-13" cx="687" cy="256.6" r="11.81"/>
        <path class="cls-12" d="M689.11,250.57h0l-1.76-3.04c-.16-.27-.55-.27-.7,0l-1.76,3.04h0c-3.28.92-5.69,3.93-5.69,7.51v3.07c0,.32.13.63.36.86,1.32,1.32,2.19,2.19,3.5,3.5.23.23.54.36.86.36h0c.56,0,1.04-.38,1.17-.92l.69-2.8c.06-.26-.13-.5-.39-.5h-1.52c-1.18,0-2.18-.97-2.15-2.15s.96-2.07,2.11-2.07h6.28c1.18,0,2.18.97,2.15,2.15-.02,1.14-.96,2.07-2.11,2.07h-1.58c-.26,0-.46.25-.39.51l.7,2.8c.14.54.62.91,1.17.91h0c.32,0,.63-.13.86-.36,1.32-1.32,2.19-2.19,3.5-3.5.23-.23.36-.54.36-.86v-3.07c0-3.57-2.41-6.59-5.69-7.51Z"/>
      </g>
      <g>
        <circle class="cls-13" cx="393" cy="256.6" r="11.81"/>
        <path class="cls-12" d="M395.11,250.57h0l-1.76-3.04c-.16-.27-.55-.27-.7,0l-1.76,3.04h0c-3.28.92-5.69,3.93-5.69,7.51v3.07c0,.32.13.63.36.86,1.32,1.32,2.19,2.19,3.5,3.5.23.23.54.36.86.36h0c.56,0,1.04-.38,1.17-.92l.69-2.8c.06-.26-.13-.5-.39-.5h-1.52c-1.18,0-2.18-.97-2.15-2.15s.96-2.07,2.11-2.07h6.28c1.18,0,2.18.97,2.15,2.15-.02,1.14-.96,2.07-2.11,2.07h-1.58c-.26,0-.46.25-.39.51l.7,2.8c.14.54.62.91,1.17.91h0c.32,0,.63-.13.86-.36,1.32-1.32,2.19-2.19,3.5-3.5.23-.23.36-.54.36-.86v-3.07c0-3.57-2.41-6.59-5.69-7.51Z"/>
      </g>
      <g>
        <circle class="cls-13" cx="449.15" cy="256.6" r="11.81"/>
        <path class="cls-12" d="M451.25,250.57h0l-1.76-3.04c-.16-.27-.55-.27-.7,0l-1.76,3.04h0c-3.28.92-5.69,3.93-5.69,7.51v3.07c0,.32.13.63.36.86,1.32,1.32,2.19,2.19,3.5,3.5.23.23.54.36.86.36h0c.56,0,1.04-.38,1.17-.92l.69-2.8c.06-.26-.13-.5-.39-.5h-1.52c-1.18,0-2.18-.97-2.15-2.15s.96-2.07,2.11-2.07h6.28c1.18,0,2.18.97,2.15,2.15-.02,1.14-.96,2.07-2.11,2.07h-1.58c-.26,0-.46.25-.39.51l.7,2.8c.14.54.62.91,1.17.91h0c.32,0,.63-.13.86-.36,1.32-1.32,2.19-2.19,3.5-3.5.23-.23.36-.54.36-.86v-3.07c0-3.57-2.41-6.59-5.69-7.51Z"/>
      </g>
      <g>
        <circle class="cls-13" cx="630.86" cy="256.6" r="11.81"/>
        <path class="cls-12" d="M632.97,250.57h0l-1.76-3.04c-.16-.27-.55-.27-.7,0l-1.76,3.04h0c-3.28.92-5.69,3.93-5.69,7.51v3.07c0,.32.13.63.36.86,1.32,1.32,2.19,2.19,3.5,3.5.23.23.54.36.86.36h0c.56,0,1.04-.38,1.17-.92l.69-2.8c.06-.26-.13-.5-.39-.5h-1.52c-1.18,0-2.18-.97-2.15-2.15s.96-2.07,2.11-2.07h6.28c1.18,0,2.18.97,2.15,2.15-.02,1.14-.96,2.07-2.11,2.07h-1.58c-.26,0-.46.25-.39.51l.7,2.8c.14.54.62.91,1.17.91h0c.32,0,.63-.13.86-.36,1.32-1.32,2.19-2.19,3.5-3.5.23-.23.36-.54.36-.86v-3.07c0-3.57-2.41-6.59-5.69-7.51Z"/>
      </g>
      <g>
        <circle class="cls-13" cx="596.15" cy="256.6" r="11.81"/>
        <path class="cls-12" d="M598.26,250.57h0l-1.76-3.04c-.16-.27-.55-.27-.7,0l-1.76,3.04h0c-3.28.92-5.69,3.93-5.69,7.51v3.07c0,.32.13.63.36.86,1.32,1.32,2.19,2.19,3.5,3.5.23.23.54.36.86.36h0c.56,0,1.04-.38,1.17-.92l.69-2.8c.06-.26-.13-.5-.39-.5h-1.52c-1.18,0-2.18-.97-2.15-2.15s.96-2.07,2.11-2.07h6.28c1.18,0,2.18.97,2.15,2.15-.02,1.14-.96,2.07-2.11,2.07h-1.58c-.26,0-.46.25-.39.51l.7,2.8c.14.54.62.91,1.17.91h0c.32,0,.63-.13.86-.36,1.32-1.32,2.19-2.19,3.5-3.5.23-.23.36-.54.36-.86v-3.07c0-3.57-2.41-6.59-5.69-7.51Z"/>
      </g>
      <g>
        <circle class="cls-13" cx="483.85" cy="256.6" r="11.81"/>
        <path class="cls-12" d="M485.96,250.57h0l-1.76-3.04c-.16-.27-.55-.27-.7,0l-1.76,3.04h0c-3.28.92-5.69,3.93-5.69,7.51v3.07c0,.32.13.63.36.86,1.32,1.32,2.19,2.19,3.5,3.5.23.23.54.36.86.36h0c.56,0,1.04-.38,1.17-.92l.69-2.8c.06-.26-.13-.5-.39-.5h-1.52c-1.18,0-2.18-.97-2.15-2.15s.96-2.07,2.11-2.07h6.28c1.18,0,2.18.97,2.15,2.15s-.96,2.07-2.11,2.07h-1.58c-.26,0-.46.25-.39.51l.7,2.8c.14.54.62.91,1.17.91h0c.32,0,.63-.13.86-.36,1.32-1.32,2.19-2.19,3.5-3.5.23-.23.36-.54.36-.86v-3.07c0-3.57-2.41-6.59-5.69-7.51Z"/>
      </g>
      <g>
        <circle class="cls-13" cx="540" cy="347.45" r="11.81"/>
        <path class="cls-12" d="M542.11,341.43h0l-1.76-3.04c-.16-.27-.55-.27-.7,0l-1.76,3.04h0c-3.28.92-5.69,3.93-5.69,7.51v3.07c0,.32.13.63.36.86,1.32,1.32,2.19,2.19,3.5,3.5.23.23.54.36.86.36h0c.56,0,1.04-.38,1.17-.92l.69-2.8c.06-.26-.13-.5-.39-.5h-1.52c-1.18,0-2.18-.97-2.15-2.15.02-1.14.96-2.07,2.11-2.07h6.28c1.18,0,2.18.97,2.15,2.15s-.96,2.07-2.11,2.07h-1.58c-.26,0-.46.25-.39.51l.7,2.8c.14.54.62.91,1.17.91h0c.32,0,.63-.13.86-.36,1.32-1.32,2.19-2.19,3.5-3.5.23-.23.36-.54.36-.86v-3.07c0-3.57-2.41-6.59-5.69-7.51Z"/>
      </g>
      <g>
        <circle class="cls-13" cx="540" cy="312.75" r="11.81"/>
        <path class="cls-12" d="M542.11,306.72h0l-1.76-3.04c-.16-.27-.55-.27-.7,0l-1.76,3.04h0c-3.28.92-5.69,3.93-5.69,7.51v3.07c0,.32.13.63.36.86,1.32,1.32,2.19,2.19,3.5,3.5.23.23.54.36.86.36h0c.56,0,1.04-.38,1.17-.92l.69-2.8c.06-.26-.13-.5-.39-.5h-1.52c-1.18,0-2.18-.97-2.15-2.15s.96-2.07,2.11-2.07h6.28c1.18,0,2.18.97,2.15,2.15-.02,1.14-.96,2.07-2.11,2.07h-1.58c-.26,0-.46.25-.39.51l.7,2.8c.14.54.62.91,1.17.91h0c.32,0,.63-.13.86-.36,1.32-1.32,2.19-2.19,3.5-3.5.23-.23.36-.54.36-.86v-3.07c0-3.57-2.41-6.59-5.69-7.51Z"/>
      </g>
      <g>
        <circle class="cls-13" cx="494.57" cy="177.9" r="11.81"/>
        <path class="cls-12" d="M496.68,171.87h0l-1.76-3.04c-.16-.27-.55-.27-.7,0l-1.76,3.04h0c-3.28.92-5.69,3.93-5.69,7.51v3.07c0,.32.13.63.36.86,1.32,1.32,2.19,2.19,3.5,3.5.23.23.54.36.86.36h0c.56,0,1.04-.38,1.17-.92l.69-2.8c.06-.26-.13-.5-.39-.5h-1.52c-1.18,0-2.18-.97-2.15-2.15s.96-2.07,2.11-2.07h6.28c1.18,0,2.18.97,2.15,2.15s-.96,2.07-2.11,2.07h-1.58c-.26,0-.46.25-.39.51l.7,2.8c.14.54.62.91,1.17.91h0c.32,0,.63-.13.86-.36,1.32-1.32,2.19-2.19,3.5-3.5.23-.23.36-.54.36-.86v-3.07c0-3.57-2.41-6.59-5.69-7.51Z"/>
      </g>
      <g>
        <circle class="cls-13" cx="540" cy="109.6" r="11.81"/>
        <path class="cls-12" d="M542.11,103.57h0l-1.76-3.04c-.16-.27-.55-.27-.7,0l-1.76,3.04h0c-3.28.92-5.69,3.93-5.69,7.51v3.07c0,.32.13.63.36.86,1.32,1.32,2.19,2.19,3.5,3.5.23.23.54.36.86.36h0c.56,0,1.04-.38,1.17-.92l.69-2.8c.06-.26-.13-.5-.39-.5h-1.52c-1.18,0-2.18-.97-2.15-2.15s.96-2.07,2.11-2.07h6.28c1.18,0,2.18.97,2.15,2.15-.02,1.14-.96,2.07-2.11,2.07h-1.58c-.26,0-.46.25-.39.51l.7,2.8c.14.54.62.91,1.17.91h0c.32,0,.63-.13.86-.36,1.32-1.32,2.19-2.19,3.5-3.5.23-.23.36-.54.36-.86v-3.07c0-3.57-2.41-6.59-5.69-7.51Z"/>
      </g>
      <g>
        <circle class="cls-13" cx="540" cy="403.6" r="11.81"/>
        <circle class="cls-9" cx="540" cy="403.6" r="8.61"/>
        <path class="cls-5" d="M544.03,399.42l-2.83.76c-.09.03-.13.14-.06.21l2.07,2.07c.07.07.19.04.21-.06l.76-2.83c.03-.09-.06-.18-.16-.16Z"/>
        <path class="cls-5" d="M535.97,407.78l2.83-.76c.09-.03.13-.14.06-.21l-2.07-2.07c-.07-.07-.19-.04-.21.06l-.76,2.83c-.03.09.06.18.16.16Z"/>
      </g>
      <g>
        <circle class="cls-13" cx="585.46" cy="177.9" r="11.81"/>
        <g>
          <path class="cls-12" d="M592.1,171.82c.26-.26.26-.67,0-.93-.26-.26-.67-.26-.93,0l-5.25,5.25.93.93,5.25-5.25Z"/>
          <path class="cls-12" d="M592.89,184.04l-3.28-3.28,2.9-2.9c.26-.26.26-.67,0-.93s-.67-.26-.93,0l-2.9,2.9-1.83-1.83-.93.93,1.83,1.83-2.3,2.3-2.3-2.3,1.83-1.83-.93-.93-1.83,1.83-2.9-2.9c-.26-.26-.67-.26-.93,0s-.26.67,0,.93l2.9,2.9-3.28,3.28c-.26.26-.26.67,0,.93.13.13.3.19.47.19s.34-.06.47-.19l3.28-3.28,2.76,2.76s0,0,0,0c.04.04.08.07.12.09.11.07.23.1.35.1h0c.17,0,.34-.06.47-.19l2.76-2.76,3.28,3.28c.13.13.3.19.47.19s.34-.06.47-.19c.26-.26.26-.67,0-.93Z"/>
          <path class="cls-12" d="M579.74,170.89c-.26-.26-.67-.26-.93,0-.26.26-.26.67,0,.93l5.25,5.25.93-.93-5.25-5.25Z"/>
        </g>
      </g>
    </g>
    <g>
      <g>
        <line class="cls-6" x1="540" y1="540.47" x2="409.83" y2="498.17"/>
        <g>
          <line class="cls-6" x1="323.43" y1="470.1" x2="356.43" y2="480.82"/>
          <line class="cls-6" x1="260.47" y1="482.16" x2="252.67" y2="506.15"/>
          <line class="cls-7" x1="356.43" y1="480.82" x2="356.43" y2="480.82"/>
          <path class="cls-7" d="M358.79,433.32c3.35,15.25,2.81,31.57-2.36,47.5"/>
          <path class="cls-7" d="M337.19,391.54c10.72,11.79,18.19,26.23,21.6,41.78"/>
          <path class="cls-7" d="M298.1,366.34c15.56,5.05,28.82,13.91,39.09,25.2"/>
          <line class="cls-7" x1="298.1" y1="366.34" x2="298.1" y2="366.34"/>
          <path class="cls-7" d="M251.14,363.86c15.1-3.22,31.22-2.64,46.96,2.48"/>
          <path class="cls-7" d="M209.24,385.2c11.85-10.64,26.33-18.02,41.9-21.34"/>
          <path class="cls-7" d="M183.62,424.67c5.12-15.75,14.13-29.15,25.62-39.47"/>
          <line class="cls-7" x1="183.62" y1="424.67" x2="183.62" y2="424.67"/>
          <path class="cls-7" d="M181.14,471.63c-3.22-15.1-2.64-31.22,2.48-46.96"/>
          <path class="cls-7" d="M202.5,513.55c-10.65-11.85-18.03-26.34-21.36-41.92"/>
          <path class="cls-7" d="M241.95,539.15c-15.74-5.11-29.13-14.12-39.45-25.6"/>
          <line class="cls-7" x1="241.95" y1="539.15" x2="241.95" y2="539.15"/>
          <line class="cls-7" x1="323.43" y1="470.1" x2="323.43" y2="470.1"/>
          <path class="cls-7" d="M324.96,441.06c2,9.34,1.64,19.31-1.53,29.04"/>
          <path class="cls-7" d="M311.76,415.17c6.58,7.32,11.14,16.27,13.2,25.89"/>
          <path class="cls-7" d="M287.38,399.34c9.73,3.16,18,8.72,24.38,15.82"/>
          <line class="cls-7" x1="287.38" y1="399.34" x2="287.38" y2="399.34"/>
          <path class="cls-7" d="M258.35,397.81c9.33-1.99,19.3-1.63,29.03,1.53"/>
          <path class="cls-7" d="M232.45,411.01c7.32-6.58,16.27-11.14,25.9-13.2"/>
          <path class="cls-7" d="M216.62,435.4c3.16-9.73,8.73-18,15.82-24.38"/>
          <line class="cls-7" x1="216.62" y1="435.4" x2="216.62" y2="435.4"/>
          <path class="cls-7" d="M215.09,464.42c-1.99-9.33-1.63-19.3,1.53-29.03"/>
          <path class="cls-7" d="M228.28,490.32c-6.58-7.32-11.13-16.27-13.19-25.89"/>
          <path class="cls-7" d="M252.67,506.15c-9.73-3.16-18.01-8.73-24.39-15.84"/>
          <line class="cls-7" x1="252.67" y1="506.15" x2="252.67" y2="506.15"/>
          <path class="cls-7" d="M238.3,309.19c24.76-5.5,51.28-4.65,77.15,3.75"/>
          <path class="cls-7" d="M171.65,343.49c18.88-16.96,41.89-28.8,66.65-34.3"/>
          <path class="cls-7" d="M130.22,407.32c8.28-25.47,22.84-47.14,41.43-63.83"/>
          <path class="cls-7" d="M126.21,483.3c-5.21-24.43-4.26-50.52,4.01-75.98"/>
          <path class="cls-7" d="M160.78,551.14c-17.24-19.17-29.18-42.62-34.56-67.83"/>
          <path class="cls-7" d="M224.6,592.55c-25.46-8.27-47.13-22.84-63.83-41.42"/>
          <path class="cls-7" d="M413.84,422.18c5.22,24.43,4.27,50.52-4.01,75.99"/>
          <path class="cls-7" d="M379.28,354.36c17.23,19.17,29.18,42.61,34.56,67.82"/>
          <path class="cls-7" d="M315.45,312.94c25.46,8.27,47.13,22.84,63.83,41.42"/>
          <circle class="cls-13" cx="270.03" cy="452.75" r="30.93"/>
          <line class="cls-6" x1="299.44" y1="462.3" x2="270.03" y2="452.75"/>
          <line class="cls-6" x1="224.6" y1="592.55" x2="241.95" y2="539.16"/>
        </g>
      </g>
      <g>
        <circle class="cls-13" cx="315.45" cy="312.94" r="11.81"/>
        <path class="cls-12" d="M317.56,306.92h0s-1.76-3.04-1.76-3.04c-.16-.27-.55-.27-.7,0l-1.76,3.04h0c-3.28.92-5.69,3.93-5.69,7.51v3.07c0,.32.13.63.36.86,1.32,1.32,2.19,2.19,3.5,3.5.23.23.54.36.86.36h0c.56,0,1.04-.38,1.17-.92l.69-2.8c.06-.26-.13-.5-.39-.5h-1.52c-1.18,0-2.18-.97-2.15-2.15.02-1.14.96-2.07,2.11-2.07h6.28c1.18,0,2.18.97,2.15,2.15s-.96,2.07-2.11,2.07h-1.58c-.26,0-.46.25-.39.51l.7,2.8c.14.54.62.91,1.17.91h0c.32,0,.63-.13.86-.36,1.32-1.32,2.19-2.19,3.5-3.5.23-.23.36-.54.36-.86v-3.07c0-3.57-2.41-6.59-5.69-7.51Z"/>
      </g>
      <g>
        <circle class="cls-13" cx="224.6" cy="592.55" r="11.81"/>
        <path class="cls-12" d="M226.71,586.53h0s-1.76-3.04-1.76-3.04c-.16-.27-.55-.27-.7,0l-1.76,3.04h0c-3.28.92-5.69,3.93-5.69,7.51v3.07c0,.32.13.63.36.86,1.32,1.32,2.19,2.19,3.5,3.5.23.23.54.36.86.36h0c.56,0,1.04-.38,1.17-.92l.69-2.8c.06-.26-.13-.5-.39-.5h-1.52c-1.18,0-2.18-.97-2.15-2.15s.96-2.07,2.11-2.07h6.28c1.18,0,2.18.97,2.15,2.15s-.96,2.07-2.11,2.07h-1.58c-.26,0-.46.25-.39.51l.7,2.8c.14.54.62.91,1.17.91h0c.32,0,.63-.13.86-.36,1.32-1.32,2.19-2.19,3.5-3.5.23-.23.36-.54.36-.86v-3.07c0-3.57-2.41-6.59-5.69-7.51Z"/>
      </g>
      <g>
        <circle class="cls-13" cx="241.95" cy="539.15" r="11.81"/>
        <path class="cls-12" d="M244.06,533.13h0s-1.76-3.04-1.76-3.04c-.16-.27-.55-.27-.7,0l-1.76,3.04h0c-3.28.92-5.69,3.93-5.69,7.51v3.07c0,.32.13.63.36.86,1.32,1.32,2.19,2.19,3.5,3.5.23.23.54.36.86.36h0c.56,0,1.04-.38,1.17-.92l.69-2.8c.06-.26-.13-.5-.39-.5h-1.52c-1.18,0-2.18-.97-2.15-2.15s.96-2.07,2.11-2.07h6.28c1.18,0,2.18.97,2.15,2.15s-.96,2.07-2.11,2.07h-1.58c-.26,0-.46.25-.39.51l.7,2.8c.14.54.62.91,1.17.91h0c.32,0,.63-.13.86-.36,1.32-1.32,2.19-2.19,3.5-3.5.23-.23.36-.54.36-.86v-3.07c0-3.57-2.41-6.59-5.69-7.51Z"/>
      </g>
      <g>
        <circle class="cls-13" cx="298.1" cy="366.34" r="11.81"/>
        <path class="cls-12" d="M300.21,360.31h0s-1.76-3.04-1.76-3.04c-.16-.27-.55-.27-.7,0l-1.76,3.04h0c-3.28.92-5.69,3.93-5.69,7.51v3.07c0,.32.13.63.36.86,1.32,1.32,2.19,2.19,3.5,3.5.23.23.54.36.86.36h0c.56,0,1.04-.38,1.17-.92l.69-2.8c.06-.26-.13-.5-.39-.5h-1.52c-1.18,0-2.18-.97-2.15-2.15s.96-2.07,2.11-2.07h6.28c1.18,0,2.18.97,2.15,2.15s-.96,2.07-2.11,2.07h-1.58c-.26,0-.46.25-.39.51l.7,2.8c.14.54.62.91,1.17.91h0c.32,0,.63-.13.86-.36,1.32-1.32,2.19-2.19,3.5-3.5.23-.23.36-.54.36-.86v-3.07c0-3.57-2.41-6.59-5.69-7.51Z"/>
      </g>
      <g>
        <circle class="cls-13" cx="287.38" cy="399.34" r="11.81"/>
        <path class="cls-12" d="M289.49,393.32h0s-1.76-3.04-1.76-3.04c-.16-.27-.55-.27-.7,0l-1.76,3.04h0c-3.28.92-5.69,3.93-5.69,7.51v3.07c0,.32.13.63.36.86,1.32,1.32,2.19,2.19,3.5,3.5.23.23.54.36.86.36h0c.56,0,1.04-.38,1.17-.92l.69-2.8c.06-.26-.13-.5-.39-.5h-1.52c-1.18,0-2.18-.97-2.15-2.15s.96-2.07,2.11-2.07h6.28c1.18,0,2.18.97,2.15,2.15s-.96,2.07-2.11,2.07h-1.58c-.26,0-.46.25-.39.51l.7,2.8c.14.54.62.91,1.17.91h0c.32,0,.63-.13.86-.36,1.32-1.32,2.19-2.19,3.5-3.5.23-.23.36-.54.36-.86v-3.07c0-3.57-2.41-6.59-5.69-7.51Z"/>
      </g>
      <g>
        <circle class="cls-13" cx="252.67" cy="506.15" r="11.81"/>
        <path class="cls-12" d="M254.78,500.12h0s-1.76-3.04-1.76-3.04c-.16-.27-.55-.27-.7,0l-1.76,3.04h0c-3.28.92-5.69,3.93-5.69,7.51v3.07c0,.32.13.63.36.86,1.32,1.32,2.19,2.19,3.5,3.5.23.23.54.36.86.36h0c.56,0,1.04-.38,1.17-.92l.69-2.8c.06-.26-.13-.5-.39-.5h-1.52c-1.18,0-2.18-.97-2.15-2.15s.96-2.07,2.11-2.07h6.28c1.18,0,2.18.97,2.15,2.15s-.96,2.07-2.11,2.07h-1.58c-.26,0-.46.25-.39.51l.7,2.8c.14.54.62.91,1.17.91h0c.32,0,.63-.13.86-.36,1.32-1.32,2.19-2.19,3.5-3.5.23-.23.36-.54.36-.86v-3.07c0-3.57-2.41-6.59-5.69-7.51Z"/>
      </g>
      <g>
        <circle class="cls-13" cx="356.43" cy="480.82" r="11.81"/>
        <path class="cls-12" d="M358.54,474.8h0s-1.76-3.04-1.76-3.04c-.16-.27-.55-.27-.7,0l-1.76,3.04h0c-3.28.92-5.69,3.93-5.69,7.51v3.07c0,.32.13.63.36.86,1.32,1.32,2.19,2.19,3.5,3.5.23.23.54.36.86.36h0c.56,0,1.04-.38,1.17-.92l.69-2.8c.06-.26-.13-.5-.39-.5h-1.52c-1.18,0-2.18-.97-2.15-2.15s.96-2.07,2.11-2.07h6.28c1.18,0,2.18.97,2.15,2.15s-.96,2.07-2.11,2.07h-1.58c-.26,0-.46.25-.39.51l.7,2.8c.14.54.62.91,1.17.91h0c.32,0,.63-.13.86-.36,1.32-1.32,2.19-2.19,3.5-3.5.23-.23.36-.54.36-.86v-3.07c0-3.57-2.41-6.59-5.69-7.51Z"/>
      </g>
      <g>
        <circle class="cls-13" cx="323.43" cy="470.1" r="11.81"/>
        <path class="cls-12" d="M325.54,464.07h0s-1.76-3.04-1.76-3.04c-.16-.27-.55-.27-.7,0l-1.76,3.04h0c-3.28.92-5.69,3.93-5.69,7.51v3.07c0,.32.13.63.36.86,1.32,1.32,2.19,2.19,3.5,3.5.23.23.54.36.86.36h0c.56,0,1.04-.38,1.17-.92l.69-2.8c.06-.26-.13-.5-.39-.5h-1.52c-1.18,0-2.18-.97-2.15-2.15s.96-2.07,2.11-2.07h6.28c1.18,0,2.18.97,2.15,2.15-.02,1.14-.96,2.07-2.11,2.07h-1.58c-.26,0-.46.25-.39.51l.7,2.8c.14.54.62.91,1.17.91h0c.32,0,.63-.13.86-.36,1.32-1.32,2.19-2.19,3.5-3.5.23-.23.36-.54.36-.86v-3.07c0-3.57-2.41-6.59-5.69-7.51Z"/>
      </g>
      <g>
        <circle class="cls-13" cx="181.14" cy="471.63" r="11.81"/>
        <path class="cls-12" d="M183.25,465.6h0s-1.76-3.04-1.76-3.04c-.16-.27-.55-.27-.7,0l-1.76,3.04h0c-3.28.92-5.69,3.93-5.69,7.51v3.07c0,.32.13.63.36.86,1.32,1.32,2.19,2.19,3.5,3.5.23.23.54.36.86.36h0c.56,0,1.04-.38,1.17-.92l.69-2.8c.06-.26-.13-.5-.39-.5h-1.52c-1.18,0-2.18-.97-2.15-2.15s.96-2.07,2.11-2.07h6.28c1.18,0,2.18.97,2.15,2.15s-.96,2.07-2.11,2.07h-1.58c-.26,0-.46.25-.39.51l.7,2.8c.14.54.62.91,1.17.91h0c.32,0,.63-.13.86-.36,1.32-1.32,2.19-2.19,3.5-3.5.23-.23.36-.54.36-.86v-3.07c0-3.57-2.41-6.59-5.69-7.51Z"/>
      </g>
      <g>
        <circle class="cls-13" cx="130.22" cy="407.32" r="11.81"/>
        <path class="cls-12" d="M132.33,401.3h0s-1.76-3.04-1.76-3.04c-.16-.27-.55-.27-.7,0l-1.76,3.04h0c-3.28.92-5.69,3.93-5.69,7.51v3.07c0,.32.13.63.36.86,1.32,1.32,2.19,2.19,3.5,3.5.23.23.54.36.86.36h0c.56,0,1.04-.38,1.17-.92l.69-2.8c.06-.26-.13-.5-.39-.5h-1.52c-1.18,0-2.18-.97-2.15-2.15.02-1.14.96-2.07,2.11-2.07h6.28c1.18,0,2.18.97,2.15,2.15s-.96,2.07-2.11,2.07h-1.58c-.26,0-.46.25-.39.51l.7,2.8c.14.54.62.91,1.17.91h0c.32,0,.63-.13.86-.36,1.32-1.32,2.19-2.19,3.5-3.5.23-.23.36-.54.36-.86v-3.07c0-3.57-2.41-6.59-5.69-7.51Z"/>
      </g>
      <g>
        <circle class="cls-13" cx="409.83" cy="498.17" r="11.81"/>
        <circle class="cls-9" cx="409.83" cy="498.17" r="8.61"/>
        <path class="cls-5" d="M413.86,493.99l-2.83.76c-.09.03-.13.14-.06.21l2.07,2.07c.07.07.19.04.21-.06l.76-2.83c.03-.09-.06-.18-.16-.16Z"/>
        <path class="cls-5" d="M405.8,502.36l2.83-.76c.09-.03.13-.14.06-.21l-2.07-2.07c-.07-.07-.19-.04-.21.06l-.76,2.83c-.03.09.06.18.16.16Z"/>
      </g>
      <g>
        <circle class="cls-13" cx="209.23" cy="385.2" r="11.81"/>
        <g>
          <path class="cls-12" d="M215.87,379.12c.26-.26.26-.67,0-.93-.26-.26-.67-.26-.93,0l-5.25,5.25.93.93,5.25-5.25Z"/>
          <path class="cls-12" d="M216.67,391.34l-3.28-3.28,2.9-2.9c.26-.26.26-.67,0-.93s-.67-.26-.93,0l-2.9,2.9-1.83-1.83-.93.93,1.83,1.83-2.3,2.3-2.3-2.3,1.83-1.83-.93-.93-1.83,1.83-2.9-2.9c-.26-.26-.67-.26-.93,0s-.26.67,0,.93l2.9,2.9-3.28,3.28c-.26.26-.26.67,0,.93.13.13.3.19.47.19s.34-.06.47-.19l3.28-3.28,2.76,2.76s0,0,0,0c.04.04.08.07.12.09.11.07.23.1.35.1h0c.17,0,.34-.06.47-.19l2.76-2.76,3.28,3.28c.13.13.3.19.47.19s.34-.06.47-.19c.26-.26.26-.67,0-.93Z"/>
          <path class="cls-12" d="M203.51,378.19c-.26-.26-.67-.26-.93,0-.26.26-.26.67,0,.93l5.25,5.25.93-.93-5.25-5.25Z"/>
        </g>
      </g>
    </g>
    <g>
      <g>
        <line class="cls-6" x1="540" y1="540.47" x2="459.55" y2="651.2"/>
        <g>
          <line class="cls-6" x1="406.15" y1="724.69" x2="426.55" y2="696.62"/>
          <line class="cls-6" x1="398.17" y1="788.3" x2="418.57" y2="803.13"/>
          <line class="cls-7" x1="426.55" y1="696.62" x2="426.55" y2="696.62"/>
          <path class="cls-7" d="M382.1,679.7c15.54,1.52,30.9,7.08,44.45,16.92"/>
          <path class="cls-7" d="M335.69,687.33c14.52-6.55,30.56-9.19,46.41-7.64"/>
          <path class="cls-7" d="M299.65,716.72c9.61-13.23,22.13-23.11,36.04-29.39"/>
          <line class="cls-7" x1="299.65" y1="716.72" x2="299.65" y2="716.72"/>
          <path class="cls-7" d="M282.78,760.61c1.6-15.35,7.14-30.51,16.87-43.89"/>
          <path class="cls-7" d="M290.12,807.06c-6.46-14.55-9-30.61-7.35-46.44"/>
          <path class="cls-7" d="M319.74,843.62c-13.4-9.73-23.35-22.44-29.62-36.56"/>
          <line class="cls-7" x1="319.75" y1="843.62" x2="319.74" y2="843.62"/>
          <path class="cls-7" d="M363.64,860.49c-15.35-1.6-30.51-7.14-43.89-16.87"/>
          <path class="cls-7" d="M410.11,853.13c-14.56,6.47-30.62,9.01-46.47,7.36"/>
          <path class="cls-7" d="M446.65,823.52c-9.73,13.39-22.43,23.34-36.54,29.61"/>
          <line class="cls-7" x1="446.65" y1="823.52" x2="446.65" y2="823.52"/>
          <line class="cls-7" x1="406.15" y1="724.69" x2="406.15" y2="724.69"/>
          <path class="cls-7" d="M379,714.27c9.5.99,18.87,4.41,27.15,10.43"/>
          <path class="cls-7" d="M350.3,718.82c8.99-4,18.91-5.57,28.7-4.55"/>
          <path class="cls-7" d="M327.72,737.12c6.01-8.27,13.86-14.42,22.58-18.3"/>
          <line class="cls-7" x1="327.72" y1="737.12" x2="327.72" y2="737.12"/>
          <path class="cls-7" d="M317.29,764.25c.99-9.49,4.41-18.86,10.43-27.13"/>
          <path class="cls-7" d="M321.84,792.96c-4-9-5.57-18.92-4.55-28.71"/>
          <path class="cls-7" d="M340.14,815.55c-8.28-6.01-14.43-13.86-18.3-22.58"/>
          <line class="cls-7" x1="340.14" y1="815.55" x2="340.14" y2="815.55"/>
          <path class="cls-7" d="M367.28,825.97c-9.49-.99-18.86-4.41-27.13-10.43"/>
          <path class="cls-7" d="M395.98,821.43c-8.99,3.99-18.91,5.56-28.7,4.54"/>
          <path class="cls-7" d="M418.57,803.13c-6.02,8.28-13.87,14.43-22.6,18.31"/>
          <line class="cls-7" x1="418.57" y1="803.13" x2="418.57" y2="803.13"/>
          <path class="cls-7" d="M226.81,755.93c2.42-25.25,11.42-50.21,27.41-72.21"/>
          <path class="cls-7" d="M238.83,829.92c-10.3-23.19-14.45-48.74-12.02-73.99"/>
          <path class="cls-7" d="M286.74,889.05c-21.67-15.74-37.77-36.29-47.91-59.13"/>
          <path class="cls-7" d="M357.76,916.34c-24.84-2.59-49.36-11.55-71.02-27.29"/>
          <path class="cls-7" d="M432.96,904.43c-23.56,10.47-49.55,14.58-75.2,11.91"/>
          <path class="cls-7" d="M492.07,856.53c-15.74,21.66-36.28,37.76-59.11,47.9"/>
          <path class="cls-7" d="M388.52,623.9c24.85,2.59,49.37,11.55,71.03,27.29"/>
          <path class="cls-7" d="M313.33,635.81c23.56-10.47,49.55-14.58,75.18-11.91"/>
          <path class="cls-7" d="M254.22,683.72c15.74-21.66,36.28-37.76,59.11-47.9"/>
          <circle class="cls-13" cx="373.15" cy="770.12" r="30.93"/>
          <line class="cls-6" x1="391.32" y1="745.1" x2="373.15" y2="770.12"/>
          <line class="cls-6" x1="492.07" y1="856.53" x2="446.65" y2="823.53"/>
        </g>
      </g>
      <g>
        <circle class="cls-13" cx="254.22" cy="683.72" r="11.81"/>
        <path class="cls-12" d="M256.33,677.69h0s-1.76-3.04-1.76-3.04c-.16-.27-.55-.27-.7,0l-1.76,3.04h0c-3.28.92-5.69,3.93-5.69,7.51v3.07c0,.32.13.63.36.86,1.32,1.32,2.19,2.19,3.5,3.5.23.23.54.36.86.36h0c.56,0,1.04-.38,1.17-.92l.69-2.8c.06-.26-.13-.5-.39-.5h-1.52c-1.18,0-2.18-.97-2.15-2.15s.96-2.07,2.11-2.07h6.28c1.18,0,2.18.97,2.15,2.15s-.96,2.07-2.11,2.07h-1.58c-.26,0-.46.25-.39.51l.7,2.8c.14.54.62.91,1.17.91h0c.32,0,.63-.13.86-.36,1.32-1.32,2.19-2.19,3.5-3.5.23-.23.36-.54.36-.86v-3.07c0-3.57-2.41-6.59-5.69-7.51Z"/>
      </g>
      <g>
        <circle class="cls-13" cx="492.07" cy="856.53" r="11.81"/>
        <path class="cls-12" d="M494.18,850.5h0s-1.76-3.04-1.76-3.04c-.16-.27-.55-.27-.7,0l-1.76,3.04h0c-3.28.92-5.69,3.93-5.69,7.51v3.07c0,.32.13.63.36.86,1.32,1.32,2.19,2.19,3.5,3.5.23.23.54.36.86.36h0c.56,0,1.04-.38,1.17-.92l.69-2.8c.06-.26-.13-.5-.39-.5h-1.52c-1.18,0-2.18-.97-2.15-2.15.02-1.14.96-2.07,2.11-2.07h6.28c1.18,0,2.18.97,2.15,2.15-.02,1.14-.96,2.07-2.11,2.07h-1.58c-.26,0-.46.25-.39.51l.7,2.8c.14.54.62.91,1.17.91h0c.32,0,.63-.13.86-.36,1.32-1.32,2.19-2.19,3.5-3.5.23-.23.36-.54.36-.86v-3.07c0-3.57-2.41-6.59-5.69-7.51Z"/>
      </g>
      <g>
        <circle class="cls-13" cx="446.65" cy="823.52" r="11.81"/>
        <path class="cls-12" d="M448.76,817.5h0s-1.76-3.04-1.76-3.04c-.16-.27-.55-.27-.7,0l-1.76,3.04h0c-3.28.92-5.69,3.93-5.69,7.51v3.07c0,.32.13.63.36.86,1.32,1.32,2.19,2.19,3.5,3.5.23.23.54.36.86.36h0c.56,0,1.04-.38,1.17-.92l.69-2.8c.06-.26-.13-.5-.39-.5h-1.52c-1.18,0-2.18-.97-2.15-2.15s.96-2.07,2.11-2.07h6.28c1.18,0,2.18.97,2.15,2.15s-.96,2.07-2.11,2.07h-1.58c-.26,0-.46.25-.39.51l.7,2.8c.14.54.62.91,1.17.91h0c.32,0,.63-.13.86-.36,1.32-1.32,2.19-2.19,3.5-3.5.23-.23.36-.54.36-.86v-3.07c0-3.57-2.41-6.59-5.69-7.51Z"/>
      </g>
      <g>
        <circle class="cls-13" cx="299.64" cy="716.72" r="11.81"/>
        <path class="cls-12" d="M301.75,710.69h0s-1.76-3.04-1.76-3.04c-.16-.27-.55-.27-.7,0l-1.76,3.04h0c-3.28.92-5.69,3.93-5.69,7.51v3.07c0,.32.13.63.36.86,1.32,1.32,2.19,2.19,3.5,3.5.23.23.54.36.86.36h0c.56,0,1.04-.38,1.17-.92l.69-2.8c.06-.26-.13-.5-.39-.5h-1.52c-1.18,0-2.18-.97-2.15-2.15s.96-2.07,2.11-2.07h6.28c1.18,0,2.18.97,2.15,2.15s-.96,2.07-2.11,2.07h-1.58c-.26,0-.46.25-.39.51l.7,2.8c.14.54.62.91,1.17.91h0c.32,0,.63-.13.86-.36,1.32-1.32,2.19-2.19,3.5-3.5.23-.23.36-.54.36-.86v-3.07c0-3.57-2.41-6.59-5.69-7.51Z"/>
      </g>
      <g>
        <circle class="cls-13" cx="327.72" cy="737.12" r="11.81"/>
        <path class="cls-12" d="M329.83,731.09h0s-1.76-3.04-1.76-3.04c-.16-.27-.55-.27-.7,0l-1.76,3.04h0c-3.28.92-5.69,3.93-5.69,7.51v3.07c0,.32.13.63.36.86,1.32,1.32,2.19,2.19,3.5,3.5.23.23.54.36.86.36h0c.56,0,1.04-.38,1.17-.92l.69-2.8c.06-.26-.13-.5-.39-.5h-1.52c-1.18,0-2.18-.97-2.15-2.15s.96-2.07,2.11-2.07h6.28c1.18,0,2.18.97,2.15,2.15s-.96,2.07-2.11,2.07h-1.58c-.26,0-.46.25-.39.51l.7,2.8c.14.54.62.91,1.17.91h0c.32,0,.63-.13.86-.36,1.32-1.32,2.19-2.19,3.5-3.5.23-.23.36-.54.36-.86v-3.07c0-3.57-2.41-6.59-5.69-7.51Z"/>
      </g>
      <g>
        <circle class="cls-13" cx="418.57" cy="803.13" r="11.81"/>
        <path class="cls-12" d="M420.68,797.1h0s-1.76-3.04-1.76-3.04c-.16-.27-.55-.27-.7,0l-1.76,3.04h0c-3.28.92-5.69,3.93-5.69,7.51v3.07c0,.32.13.63.36.86,1.32,1.32,2.19,2.19,3.5,3.5.23.23.54.36.86.36h0c.56,0,1.04-.38,1.17-.92l.69-2.8c.06-.26-.13-.5-.39-.5h-1.52c-1.18,0-2.18-.97-2.15-2.15.02-1.14.96-2.07,2.11-2.07h6.28c1.18,0,2.18.97,2.15,2.15-.02,1.14-.96,2.07-2.11,2.07h-1.58c-.26,0-.46.25-.39.51l.7,2.8c.14.54.62.91,1.17.91h0c.32,0,.63-.13.86-.36,1.32-1.32,2.19-2.19,3.5-3.5.23-.23.36-.54.36-.86v-3.07c0-3.57-2.41-6.59-5.69-7.51Z"/>
      </g>
      <g>
        <circle class="cls-13" cx="426.55" cy="696.62" r="11.81"/>
        <path class="cls-12" d="M428.66,690.59h0s-1.76-3.04-1.76-3.04c-.16-.27-.55-.27-.7,0l-1.76,3.04h0c-3.28.92-5.69,3.93-5.69,7.51v3.07c0,.32.13.63.36.86,1.32,1.32,2.19,2.19,3.5,3.5.23.23.54.36.86.36h0c.56,0,1.04-.38,1.17-.92l.69-2.8c.06-.26-.13-.5-.39-.5h-1.52c-1.18,0-2.18-.97-2.15-2.15s.96-2.07,2.11-2.07h6.28c1.18,0,2.18.97,2.15,2.15-.02,1.14-.96,2.07-2.11,2.07h-1.58c-.26,0-.46.25-.39.51l.7,2.8c.14.54.62.91,1.17.91h0c.32,0,.63-.13.86-.36,1.32-1.32,2.19-2.19,3.5-3.5.23-.23.36-.54.36-.86v-3.07c0-3.57-2.41-6.59-5.69-7.51Z"/>
      </g>
      <g>
        <circle class="cls-13" cx="406.15" cy="724.69" r="11.81"/>
        <path class="cls-12" d="M408.26,718.67h0s-1.76-3.04-1.76-3.04c-.16-.27-.55-.27-.7,0l-1.76,3.04h0c-3.28.92-5.69,3.93-5.69,7.51v3.07c0,.32.13.63.36.86,1.32,1.32,2.19,2.19,3.5,3.5.23.23.54.36.86.36h0c.56,0,1.04-.38,1.17-.92l.69-2.8c.06-.26-.13-.5-.39-.5h-1.52c-1.18,0-2.18-.97-2.15-2.15s.96-2.07,2.11-2.07h6.28c1.18,0,2.18.97,2.15,2.15s-.96,2.07-2.11,2.07h-1.58c-.26,0-.46.25-.39.51l.7,2.8c.14.54.62.91,1.17.91h0c.32,0,.63-.13.86-.36,1.32-1.32,2.19-2.19,3.5-3.5.23-.23.36-.54.36-.86v-3.07c0-3.57-2.41-6.59-5.69-7.51Z"/>
      </g>
      <g>
        <circle class="cls-13" cx="363.64" cy="860.49" r="11.81"/>
        <path class="cls-12" d="M365.75,854.46h0s-1.76-3.04-1.76-3.04c-.16-.27-.55-.27-.7,0l-1.76,3.04h0c-3.28.92-5.69,3.93-5.69,7.51v3.07c0,.32.13.63.36.86,1.32,1.32,2.19,2.19,3.5,3.5.23.23.54.36.86.36h0c.56,0,1.04-.38,1.17-.92l.69-2.8c.06-.26-.13-.5-.39-.5h-1.52c-1.18,0-2.18-.97-2.15-2.15s.96-2.07,2.11-2.07h6.28c1.18,0,2.18.97,2.15,2.15s-.96,2.07-2.11,2.07h-1.58c-.26,0-.46.25-.39.51l.7,2.8c.14.54.62.91,1.17.91h0c.32,0,.63-.13.86-.36,1.32-1.32,2.19-2.19,3.5-3.5.23-.23.36-.54.36-.86v-3.07c0-3.57-2.41-6.59-5.69-7.51Z"/>
      </g>
      <g>
        <circle class="cls-13" cx="286.74" cy="889.05" r="11.81"/>
        <path class="cls-12" d="M288.85,883.02h0s-1.76-3.04-1.76-3.04c-.16-.27-.55-.27-.7,0l-1.76,3.04h0c-3.28.92-5.69,3.93-5.69,7.51v3.07c0,.32.13.63.36.86,1.32,1.32,2.19,2.19,3.5,3.5.23.23.54.36.86.36h0c.56,0,1.04-.38,1.17-.92l.69-2.8c.06-.26-.13-.5-.39-.5h-1.52c-1.18,0-2.18-.97-2.15-2.15s.96-2.07,2.11-2.07h6.28c1.18,0,2.18.97,2.15,2.15-.02,1.14-.96,2.07-2.11,2.07h-1.58c-.26,0-.46.25-.39.51l.7,2.8c.14.54.62.91,1.17.91h0c.32,0,.63-.13.86-.36,1.32-1.32,2.19-2.19,3.5-3.5.23-.23.36-.54.36-.86v-3.07c0-3.57-2.41-6.59-5.69-7.51Z"/>
      </g>
      <g>
        <circle class="cls-13" cx="459.55" cy="651.2" r="11.81"/>
        <circle class="cls-9" cx="459.55" cy="651.2" r="8.61"/>
        <path class="cls-5" d="M463.58,647.01l-2.83.76c-.09.03-.13.14-.06.21l2.07,2.07c.07.07.19.04.21-.06l.76-2.83c.03-.09-.06-.18-.16-.16Z"/>
        <path class="cls-5" d="M455.52,655.38l2.83-.76c.09-.03.13-.14.06-.21l-2.07-2.07c-.07-.07-.19-.04-.21.06l-.76,2.83c-.03.09.06.18.16.16Z"/>
      </g>
      <g>
        <circle class="cls-13" cx="290.12" cy="807.07" r="11.81"/>
        <g>
          <path class="cls-12" d="M296.76,800.99c.26-.26.26-.67,0-.93-.26-.26-.67-.26-.93,0l-5.25,5.25.93.93,5.25-5.25Z"/>
          <path class="cls-12" d="M297.55,813.21l-3.28-3.28,2.9-2.9c.26-.26.26-.67,0-.93s-.67-.26-.93,0l-2.9,2.9-1.83-1.83-.93.93,1.83,1.83-2.3,2.3-2.3-2.3,1.83-1.83-.93-.93-1.83,1.83-2.9-2.9c-.26-.26-.67-.26-.93,0s-.26.67,0,.93l2.9,2.9-3.28,3.28c-.26.26-.26.67,0,.93.13.13.3.19.47.19s.34-.06.47-.19l3.28-3.28,2.76,2.76s0,0,0,0c.04.04.08.07.12.09.11.07.23.1.35.1h0c.17,0,.34-.06.47-.19l2.76-2.76,3.28,3.28c.13.13.3.19.47.19s.34-.06.47-.19c.26-.26.26-.67,0-.93Z"/>
          <path class="cls-12" d="M284.4,800.06c-.26-.26-.67-.26-.93,0-.26.26-.26.67,0,.93l5.25,5.25.93-.93-5.25-5.25Z"/>
        </g>
      </g>
    </g>
    <g>
      <g>
        <line class="cls-6" x1="540" y1="540.47" x2="620.45" y2="651.2"/>
        <g>
          <line class="cls-6" x1="673.85" y1="724.69" x2="653.45" y2="696.62"/>
          <line class="cls-6" x1="731.87" y1="751.94" x2="752.28" y2="737.12"/>
          <line class="cls-7" x1="653.45" y1="696.62" x2="653.45" y2="696.62"/>
          <path class="cls-7" d="M623.62,733.66c6.25-14.31,16.28-27.2,29.83-37.04"/>
          <path class="cls-7" d="M616.54,780.16c-1.75-15.84.7-31.91,7.08-46.5"/>
          <path class="cls-7" d="M633.35,823.52c-9.61-13.23-15.14-28.19-16.81-43.36"/>
          <line class="cls-7" x1="633.35" y1="823.52" x2="633.35" y2="823.52"/>
          <path class="cls-7" d="M669.89,853.13c-14.11-6.27-26.81-16.22-36.53-29.61"/>
          <path class="cls-7" d="M716.33,860.49c-15.84,1.65-31.89-.9-46.44-7.36"/>
          <path class="cls-7" d="M760.25,843.62c-13.4,9.73-28.56,15.27-43.93,16.87"/>
          <line class="cls-7" x1="760.26" y1="843.62" x2="760.25" y2="843.62"/>
          <path class="cls-7" d="M789.86,807.09c-6.27,14.11-16.22,26.81-29.61,36.53"/>
          <path class="cls-7" d="M797.22,760.62c1.65,15.85-.89,31.91-7.36,46.47"/>
          <path class="cls-7" d="M780.35,716.72c9.73,13.39,15.27,28.54,16.87,43.9"/>
          <line class="cls-7" x1="780.35" y1="716.72" x2="780.35" y2="716.72"/>
          <line class="cls-7" x1="673.85" y1="724.69" x2="673.85" y2="724.69"/>
          <path class="cls-7" d="M655.54,747.29c3.87-8.73,10.03-16.58,18.31-22.6"/>
          <path class="cls-7" d="M651,776c-1.02-9.79.55-19.71,4.54-28.7"/>
          <path class="cls-7" d="M661.43,803.13c-6.01-8.27-9.44-17.64-10.43-27.13"/>
          <line class="cls-7" x1="661.43" y1="803.13" x2="661.43" y2="803.13"/>
          <path class="cls-7" d="M684.01,821.43c-8.72-3.87-16.57-10.02-22.58-18.3"/>
          <path class="cls-7" d="M712.72,825.97c-9.79,1.02-19.72-.55-28.71-4.55"/>
          <path class="cls-7" d="M739.86,815.55c-8.28,6.01-17.64,9.44-27.13,10.43"/>
          <line class="cls-7" x1="739.86" y1="815.55" x2="739.86" y2="815.55"/>
          <path class="cls-7" d="M758.16,792.96c-3.87,8.72-10.02,16.57-18.3,22.58"/>
          <path class="cls-7" d="M762.71,764.27c1.02,9.79-.56,19.71-4.55,28.7"/>
          <path class="cls-7" d="M752.28,737.12c6.02,8.28,9.44,17.65,10.43,27.15"/>
          <line class="cls-7" x1="752.28" y1="737.12" x2="752.28" y2="737.12"/>
          <path class="cls-7" d="M648.14,904.91c-23.27-10.11-44.22-26.38-60.21-48.38"/>
          <path class="cls-7" d="M722.22,916.34c-25.24,2.63-50.82-1.32-74.09-11.43"/>
          <path class="cls-7" d="M793.26,889.05c-21.67,15.74-46.19,24.71-71.04,27.29"/>
          <path class="cls-7" d="M841.16,829.93c-10.14,22.83-26.24,43.37-47.9,59.11"/>
          <path class="cls-7" d="M853.07,754.74c2.67,25.64-1.44,51.63-11.91,75.2"/>
          <path class="cls-7" d="M825.78,683.72c15.74,21.66,24.7,46.18,27.29,71.02"/>
          <path class="cls-7" d="M572.54,710.32c10.14-22.83,26.24-43.38,47.91-59.12"/>
          <path class="cls-7" d="M560.64,785.5c-2.67-25.64,1.44-51.63,11.91-75.19"/>
          <path class="cls-7" d="M587.93,856.53c-15.74-21.66-24.7-46.18-27.29-71.02"/>
          <circle class="cls-13" cx="706.85" cy="770.12" r="30.93"/>
          <line class="cls-6" x1="688.68" y1="745.1" x2="706.85" y2="770.12"/>
          <line class="cls-6" x1="825.78" y1="683.72" x2="780.36" y2="716.72"/>
        </g>
      </g>
      <g>
        <circle class="cls-13" cx="587.93" cy="856.53" r="11.81"/>
        <path class="cls-12" d="M590.03,850.5h0s-1.76-3.04-1.76-3.04c-.16-.27-.55-.27-.7,0l-1.76,3.04h0c-3.28.92-5.69,3.93-5.69,7.51v3.07c0,.32.13.63.36.86,1.32,1.32,2.19,2.19,3.5,3.5.23.23.54.36.86.36h0c.56,0,1.04-.38,1.17-.92l.69-2.8c.06-.26-.13-.5-.39-.5h-1.52c-1.18,0-2.18-.97-2.15-2.15s.96-2.07,2.11-2.07h6.28c1.18,0,2.18.97,2.15,2.15s-.96,2.07-2.11,2.07h-1.58c-.26,0-.46.25-.39.51l.7,2.8c.14.54.62.91,1.17.91h0c.32,0,.63-.13.86-.36,1.32-1.32,2.19-2.19,3.5-3.5.23-.23.36-.54.36-.86v-3.07c0-3.57-2.41-6.59-5.69-7.51Z"/>
      </g>
      <g>
        <circle class="cls-13" cx="825.78" cy="683.72" r="11.81"/>
        <path class="cls-12" d="M827.89,677.69h0s-1.76-3.04-1.76-3.04c-.16-.27-.55-.27-.7,0l-1.76,3.04h0c-3.28.92-5.69,3.93-5.69,7.51v3.07c0,.32.13.63.36.86,1.32,1.32,2.19,2.19,3.5,3.5.23.23.54.36.86.36h0c.56,0,1.04-.38,1.17-.92l.69-2.8c.06-.26-.13-.5-.39-.5h-1.52c-1.18,0-2.18-.97-2.15-2.15s.96-2.07,2.11-2.07h6.28c1.18,0,2.18.97,2.15,2.15-.02,1.14-.96,2.07-2.11,2.07h-1.58c-.26,0-.46.25-.39.51l.7,2.8c.14.54.62.91,1.17.91h0c.32,0,.63-.13.86-.36,1.32-1.32,2.19-2.19,3.5-3.5.23-.23.36-.54.36-.86v-3.07c0-3.57-2.41-6.59-5.69-7.51Z"/>
      </g>
      <g>
        <circle class="cls-13" cx="780.35" cy="716.72" r="11.81"/>
        <path class="cls-12" d="M782.46,710.69h0s-1.76-3.04-1.76-3.04c-.16-.27-.55-.27-.7,0l-1.76,3.04h0c-3.28.92-5.69,3.93-5.69,7.51v3.07c0,.32.13.63.36.86,1.32,1.32,2.19,2.19,3.5,3.5.23.23.54.36.86.36h0c.56,0,1.04-.38,1.17-.92l.69-2.8c.06-.26-.13-.5-.39-.5h-1.52c-1.18,0-2.18-.97-2.15-2.15s.96-2.07,2.11-2.07h6.28c1.18,0,2.18.97,2.15,2.15-.02,1.14-.96,2.07-2.11,2.07h-1.58c-.26,0-.46.25-.39.51l.7,2.8c.14.54.62.91,1.17.91h0c.32,0,.63-.13.86-.36,1.32-1.32,2.19-2.19,3.5-3.5.23-.23.36-.54.36-.86v-3.07c0-3.57-2.41-6.59-5.69-7.51Z"/>
      </g>
      <g>
        <circle class="cls-13" cx="633.35" cy="823.53" r="11.81"/>
        <path class="cls-12" d="M635.45,817.5h0s-1.76-3.04-1.76-3.04c-.16-.27-.55-.27-.7,0l-1.76,3.04h0c-3.28.92-5.69,3.93-5.69,7.51v3.07c0,.32.13.63.36.86,1.32,1.32,2.19,2.19,3.5,3.5.23.23.54.36.86.36h0c.56,0,1.04-.38,1.17-.92l.69-2.8c.06-.26-.13-.5-.39-.5h-1.52c-1.18,0-2.18-.97-2.15-2.15s.96-2.07,2.11-2.07h6.28c1.18,0,2.18.97,2.15,2.15s-.96,2.07-2.11,2.07h-1.58c-.26,0-.46.25-.39.51l.7,2.8c.14.54.62.91,1.17.91h0c.32,0,.63-.13.86-.36,1.32-1.32,2.19-2.19,3.5-3.5.23-.23.36-.54.36-.86v-3.07c0-3.57-2.41-6.59-5.69-7.51Z"/>
      </g>
      <g>
        <circle class="cls-13" cx="661.43" cy="803.13" r="11.81"/>
        <path class="cls-12" d="M663.53,797.1h0s-1.76-3.04-1.76-3.04c-.16-.27-.55-.27-.7,0l-1.76,3.04h0c-3.28.92-5.69,3.93-5.69,7.51v3.07c0,.32.13.63.36.86,1.32,1.32,2.19,2.19,3.5,3.5.23.23.54.36.86.36h0c.56,0,1.04-.38,1.17-.92l.69-2.8c.06-.26-.13-.5-.39-.5h-1.52c-1.18,0-2.18-.97-2.15-2.15s.96-2.07,2.11-2.07h6.28c1.18,0,2.18.97,2.15,2.15-.02,1.14-.96,2.07-2.11,2.07h-1.58c-.26,0-.46.25-.39.51l.7,2.8c.14.54.62.91,1.17.91h0c.32,0,.63-.13.86-.36,1.32-1.32,2.19-2.19,3.5-3.5.23-.23.36-.54.36-.86v-3.07c0-3.57-2.41-6.59-5.69-7.51Z"/>
      </g>
      <g>
        <circle class="cls-13" cx="752.28" cy="737.12" r="11.81"/>
        <path class="cls-12" d="M754.39,731.09h0s-1.76-3.04-1.76-3.04c-.16-.27-.55-.27-.7,0l-1.76,3.04h0c-3.28.92-5.69,3.93-5.69,7.51v3.07c0,.32.13.63.36.86,1.32,1.32,2.19,2.19,3.5,3.5.23.23.54.36.86.36h0c.56,0,1.04-.38,1.17-.92l.69-2.8c.06-.26-.13-.5-.39-.5h-1.52c-1.18,0-2.18-.97-2.15-2.15s.96-2.07,2.11-2.07h6.28c1.18,0,2.18.97,2.15,2.15s-.96,2.07-2.11,2.07h-1.58c-.26,0-.46.25-.39.51l.7,2.8c.14.54.62.91,1.17.91h0c.32,0,.63-.13.86-.36,1.32-1.32,2.19-2.19,3.5-3.5.23-.23.36-.54.36-.86v-3.07c0-3.57-2.41-6.59-5.69-7.51Z"/>
      </g>
      <g>
        <circle class="cls-13" cx="653.45" cy="696.62" r="11.81"/>
        <path class="cls-12" d="M655.56,690.59h0s-1.76-3.04-1.76-3.04c-.16-.27-.55-.27-.7,0l-1.76,3.04h0c-3.28.92-5.69,3.93-5.69,7.51v3.07c0,.32.13.63.36.86,1.32,1.32,2.19,2.19,3.5,3.5.23.23.54.36.86.36h0c.56,0,1.04-.38,1.17-.92l.69-2.8c.06-.26-.13-.5-.39-.5h-1.52c-1.18,0-2.18-.97-2.15-2.15s.96-2.07,2.11-2.07h6.28c1.18,0,2.18.97,2.15,2.15-.02,1.14-.96,2.07-2.11,2.07h-1.58c-.26,0-.46.25-.39.51l.7,2.8c.14.54.62.91,1.17.91h0c.32,0,.63-.13.86-.36,1.32-1.32,2.19-2.19,3.5-3.5.23-.23.36-.54.36-.86v-3.07c0-3.57-2.41-6.59-5.69-7.51Z"/>
      </g>
      <g>
        <circle class="cls-13" cx="673.85" cy="724.69" r="11.81"/>
        <path class="cls-12" d="M675.96,718.67h0s-1.76-3.04-1.76-3.04c-.16-.27-.55-.27-.7,0l-1.76,3.04h0c-3.28.92-5.69,3.93-5.69,7.51v3.07c0,.32.13.63.36.86,1.32,1.32,2.19,2.19,3.5,3.5.23.23.54.36.86.36h0c.56,0,1.04-.38,1.17-.92l.69-2.8c.06-.26-.13-.5-.39-.5h-1.52c-1.18,0-2.18-.97-2.15-2.15s.96-2.07,2.11-2.07h6.28c1.18,0,2.18.97,2.15,2.15-.02,1.14-.96,2.07-2.11,2.07h-1.58c-.26,0-.46.25-.39.51l.7,2.8c.14.54.62.91,1.17.91h0c.32,0,.63-.13.86-.36,1.32-1.32,2.19-2.19,3.5-3.5.23-.23.36-.54.36-.86v-3.07c0-3.57-2.41-6.59-5.69-7.51Z"/>
      </g>
      <g>
        <circle class="cls-13" cx="789.86" cy="807.09" r="11.81"/>
        <path class="cls-12" d="M791.97,801.06h0s-1.76-3.04-1.76-3.04c-.16-.27-.55-.27-.7,0l-1.76,3.04h0c-3.28.92-5.69,3.93-5.69,7.51v3.07c0,.32.13.63.36.86,1.32,1.32,2.19,2.19,3.5,3.5.23.23.54.36.86.36h0c.56,0,1.04-.38,1.17-.92l.69-2.8c.06-.26-.13-.5-.39-.5h-1.52c-1.18,0-2.18-.97-2.15-2.15.02-1.14.96-2.07,2.11-2.07h6.28c1.18,0,2.18.97,2.15,2.15s-.96,2.07-2.11,2.07h-1.58c-.26,0-.46.25-.39.51l.7,2.8c.14.54.62.91,1.17.91h0c.32,0,.63-.13.86-.36,1.32-1.32,2.19-2.19,3.5-3.5.23-.23.36-.54.36-.86v-3.07c0-3.57-2.41-6.59-5.69-7.51Z"/>
      </g>
      <g>
        <circle class="cls-13" cx="793.26" cy="889.05" r="11.81"/>
        <path class="cls-12" d="M795.36,883.02h0s-1.76-3.04-1.76-3.04c-.16-.27-.55-.27-.7,0l-1.76,3.04h0c-3.28.92-5.69,3.93-5.69,7.51v3.07c0,.32.13.63.36.86,1.32,1.32,2.19,2.19,3.5,3.5.23.23.54.36.86.36h0c.56,0,1.04-.38,1.17-.92l.69-2.8c.06-.26-.13-.5-.39-.5h-1.52c-1.18,0-2.18-.97-2.15-2.15s.96-2.07,2.11-2.07h6.28c1.18,0,2.18.97,2.15,2.15s-.96,2.07-2.11,2.07h-1.58c-.26,0-.46.25-.39.51l.7,2.8c.14.54.62.91,1.17.91h0c.32,0,.63-.13.86-.36,1.32-1.32,2.19-2.19,3.5-3.5.23-.23.36-.54.36-.86v-3.07c0-3.57-2.41-6.59-5.69-7.51Z"/>
      </g>
      <g>
        <circle class="cls-13" cx="620.45" cy="651.2" r="11.81"/>
        <circle class="cls-9" cx="620.45" cy="651.2" r="8.61"/>
        <path class="cls-5" d="M624.48,647.01l-2.83.76c-.09.03-.13.14-.06.21l2.07,2.07c.07.07.19.04.21-.06l.76-2.83c.03-.09-.06-.18-.16-.16Z"/>
        <path class="cls-5" d="M616.42,655.38l2.83-.76c.09-.03.13-.14.06-.21l-2.07-2.07c-.07-.07-.19-.04-.21.06l-.76,2.83c-.03.09.06.18.16.16Z"/>
      </g>
      <g>
        <circle class="cls-13" cx="716.34" cy="860.51" r="11.81"/>
        <g>
          <path class="cls-12" d="M722.98,854.43c.26-.26.26-.67,0-.93-.26-.26-.67-.26-.93,0l-5.25,5.25.93.93,5.25-5.25Z"/>
          <path class="cls-12" d="M723.78,866.65l-3.28-3.28,2.9-2.9c.26-.26.26-.67,0-.93s-.67-.26-.93,0l-2.9,2.9-1.83-1.83-.93.93,1.83,1.83-2.3,2.3-2.3-2.3,1.83-1.83-.93-.93-1.83,1.83-2.9-2.9c-.26-.26-.67-.26-.93,0s-.26.67,0,.93l2.9,2.9-3.28,3.28c-.26.26-.26.67,0,.93.13.13.3.19.47.19s.34-.06.47-.19l3.28-3.28,2.76,2.76s0,0,0,0c.04.04.08.07.12.09.11.07.23.1.35.1h0c.17,0,.34-.06.47-.19l2.76-2.76,3.28,3.28c.13.13.3.19.47.19s.34-.06.47-.19c.26-.26.26-.67,0-.93Z"/>
          <path class="cls-12" d="M710.63,853.5c-.26-.26-.67-.26-.93,0-.26.26-.26.67,0,.93l5.25,5.25.93-.93-5.25-5.25Z"/>
        </g>
      </g>
    </g>
    <g>
      <g>
        <line class="cls-6" x1="540" y1="540.47" x2="670.17" y2="498.17"/>
        <g>
          <line class="cls-6" x1="756.57" y1="470.1" x2="723.57" y2="480.82"/>
          <line class="cls-6" x1="800.42" y1="423.34" x2="792.62" y2="399.34"/>
          <line class="cls-7" x1="723.57" y1="480.82" x2="723.57" y2="480.82"/>
          <path class="cls-7" d="M749.58,520.64c-11.68-10.37-20.84-23.89-26.01-39.82"/>
          <path class="cls-7" d="M791.62,541.74c-15.6-3.23-30.13-10.53-42.04-21.1"/>
          <path class="cls-7" d="M838.05,539.15c-15.56,5.05-31.49,5.69-46.43,2.59"/>
          <line class="cls-7" x1="838.05" y1="539.15" x2="838.05" y2="539.15"/>
          <path class="cls-7" d="M877.5,513.56c-10.32,11.48-23.71,20.48-39.45,25.6"/>
          <path class="cls-7" d="M898.85,471.66c-3.33,15.57-10.71,30.05-21.36,41.89"/>
          <path class="cls-7" d="M896.38,424.67c5.12,15.75,5.7,31.88,2.47,46.99"/>
          <line class="cls-7" x1="896.38" y1="424.67" x2="896.38" y2="424.67"/>
          <path class="cls-7" d="M870.78,385.23c11.48,10.32,20.48,23.71,25.6,39.45"/>
          <path class="cls-7" d="M828.86,363.86c15.58,3.33,30.07,10.71,41.92,21.36"/>
          <path class="cls-7" d="M781.9,366.34c15.74-5.11,31.86-5.7,46.96-2.48"/>
          <line class="cls-7" x1="781.9" y1="366.34" x2="781.9" y2="366.34"/>
          <line class="cls-7" x1="756.57" y1="470.1" x2="756.57" y2="470.1"/>
          <path class="cls-7" d="M772.41,494.49c-7.1-6.38-12.67-14.66-15.84-24.39"/>
          <path class="cls-7" d="M798.3,507.68c-9.62-2.05-18.57-6.61-25.9-13.19"/>
          <path class="cls-7" d="M827.33,506.15c-9.73,3.16-19.69,3.52-29.02,1.53"/>
          <line class="cls-7" x1="827.33" y1="506.15" x2="827.33" y2="506.15"/>
          <path class="cls-7" d="M851.71,490.33c-6.38,7.1-14.65,12.66-24.38,15.82"/>
          <path class="cls-7" d="M864.91,464.42c-2.06,9.63-6.62,18.58-13.2,25.9"/>
          <path class="cls-7" d="M863.38,435.4c3.16,9.73,3.52,19.7,1.53,29.03"/>
          <line class="cls-7" x1="863.38" y1="435.4" x2="863.38" y2="435.4"/>
          <path class="cls-7" d="M847.55,411.01c7.1,6.38,12.66,14.65,15.82,24.38"/>
          <path class="cls-7" d="M821.66,397.82c9.62,2.06,18.57,6.62,25.89,13.19"/>
          <path class="cls-7" d="M792.62,399.34c9.73-3.16,19.71-3.52,29.04-1.53"/>
          <line class="cls-7" x1="792.62" y1="399.34" x2="792.62" y2="399.34"/>
          <path class="cls-7" d="M920.02,550.24c-16.8,19-38.75,33.9-64.62,42.31"/>
          <path class="cls-7" d="M953.79,483.32c-5.3,24.82-16.96,47.92-33.76,66.93"/>
          <path class="cls-7" d="M949.78,407.32c8.28,25.47,9.22,51.56,4.01,75.99"/>
          <path class="cls-7" d="M908.36,343.5c18.58,16.7,33.14,38.36,41.42,63.83"/>
          <path class="cls-7" d="M840.53,308.93c25.21,5.38,48.66,17.33,67.83,34.56"/>
          <path class="cls-7" d="M764.55,312.94c25.46-8.27,51.55-9.22,75.98-4.01"/>
          <path class="cls-7" d="M711.59,562.01c-18.58-16.7-33.15-38.36-41.42-63.83"/>
          <path class="cls-7" d="M779.42,596.56c-25.21-5.38-48.65-17.33-67.83-34.56"/>
          <path class="cls-7" d="M855.4,592.55c-25.46,8.27-51.55,9.22-75.98,4.01"/>
          <circle class="cls-13" cx="809.97" cy="452.75" r="30.93"/>
          <line class="cls-6" x1="780.56" y1="462.3" x2="809.97" y2="452.75"/>
          <line class="cls-6" x1="764.55" y1="312.94" x2="781.9" y2="366.34"/>
        </g>
      </g>
      <g>
        <circle class="cls-13" cx="855.4" cy="592.55" r="11.81"/>
        <path class="cls-12" d="M857.51,586.53h0s-1.76-3.04-1.76-3.04c-.16-.27-.55-.27-.7,0l-1.76,3.04h0c-3.28.92-5.69,3.93-5.69,7.51v3.07c0,.32.13.63.36.86,1.32,1.32,2.19,2.19,3.5,3.5.23.23.54.36.86.36h0c.56,0,1.04-.38,1.17-.92l.69-2.8c.06-.26-.13-.5-.39-.5h-1.52c-1.18,0-2.18-.97-2.15-2.15s.96-2.07,2.11-2.07h6.28c1.18,0,2.18.97,2.15,2.15-.02,1.14-.96,2.07-2.11,2.07h-1.58c-.26,0-.46.25-.39.51l.7,2.8c.14.54.62.91,1.17.91h0c.32,0,.63-.13.86-.36,1.32-1.32,2.19-2.19,3.5-3.5.23-.23.36-.54.36-.86v-3.07c0-3.57-2.41-6.59-5.69-7.51Z"/>
      </g>
      <g>
        <circle class="cls-13" cx="764.55" cy="312.94" r="11.81"/>
        <path class="cls-12" d="M766.66,306.92h0s-1.76-3.04-1.76-3.04c-.16-.27-.55-.27-.7,0l-1.76,3.04h0c-3.28.92-5.69,3.93-5.69,7.51v3.07c0,.32.13.63.36.86,1.32,1.32,2.19,2.19,3.5,3.5.23.23.54.36.86.36h0c.56,0,1.04-.38,1.17-.92l.69-2.8c.06-.26-.13-.5-.39-.5h-1.52c-1.18,0-2.18-.97-2.15-2.15s.96-2.07,2.11-2.07h6.28c1.18,0,2.18.97,2.15,2.15-.02,1.14-.96,2.07-2.11,2.07h-1.58c-.26,0-.46.25-.39.51l.7,2.8c.14.54.62.91,1.17.91h0c.32,0,.63-.13.86-.36,1.32-1.32,2.19-2.19,3.5-3.5.23-.23.36-.54.36-.86v-3.07c0-3.57-2.41-6.59-5.69-7.51Z"/>
      </g>
      <g>
        <circle class="cls-13" cx="781.9" cy="366.34" r="11.81"/>
        <path class="cls-12" d="M784.01,360.31h0s-1.76-3.04-1.76-3.04c-.16-.27-.55-.27-.7,0l-1.76,3.04h0c-3.28.92-5.69,3.93-5.69,7.51v3.07c0,.32.13.63.36.86,1.32,1.32,2.19,2.19,3.5,3.5.23.23.54.36.86.36h0c.56,0,1.04-.38,1.17-.92l.69-2.8c.06-.26-.13-.5-.39-.5h-1.52c-1.18,0-2.18-.97-2.15-2.15s.96-2.07,2.11-2.07h6.28c1.18,0,2.18.97,2.15,2.15s-.96,2.07-2.11,2.07h-1.58c-.26,0-.46.25-.39.51l.7,2.8c.14.54.62.91,1.17.91h0c.32,0,.63-.13.86-.36,1.32-1.32,2.19-2.19,3.5-3.5.23-.23.36-.54.36-.86v-3.07c0-3.57-2.41-6.59-5.69-7.51Z"/>
      </g>
      <g>
        <circle class="cls-13" cx="838.05" cy="539.16" r="11.81"/>
        <path class="cls-12" d="M840.16,533.13h0s-1.76-3.04-1.76-3.04c-.16-.27-.55-.27-.7,0l-1.76,3.04h0c-3.28.92-5.69,3.93-5.69,7.51v3.07c0,.32.13.63.36.86,1.32,1.32,2.19,2.19,3.5,3.5.23.23.54.36.86.36h0c.56,0,1.04-.38,1.17-.92l.69-2.8c.06-.26-.13-.5-.39-.5h-1.52c-1.18,0-2.18-.97-2.15-2.15s.96-2.07,2.11-2.07h6.28c1.18,0,2.18.97,2.15,2.15s-.96,2.07-2.11,2.07h-1.58c-.26,0-.46.25-.39.51l.7,2.8c.14.54.62.91,1.17.91h0c.32,0,.63-.13.86-.36,1.32-1.32,2.19-2.19,3.5-3.5.23-.23.36-.54.36-.86v-3.07c0-3.57-2.41-6.59-5.69-7.51Z"/>
      </g>
      <g>
        <circle class="cls-13" cx="827.33" cy="506.15" r="11.81"/>
        <path class="cls-12" d="M829.43,500.12h0s-1.76-3.04-1.76-3.04c-.16-.27-.55-.27-.7,0l-1.76,3.04h0c-3.28.92-5.69,3.93-5.69,7.51v3.07c0,.32.13.63.36.86,1.32,1.32,2.19,2.19,3.5,3.5.23.23.54.36.86.36h0c.56,0,1.04-.38,1.17-.92l.69-2.8c.06-.26-.13-.5-.39-.5h-1.52c-1.18,0-2.18-.97-2.15-2.15s.96-2.07,2.11-2.07h6.28c1.18,0,2.18.97,2.15,2.15s-.96,2.07-2.11,2.07h-1.58c-.26,0-.46.25-.39.51l.7,2.8c.14.54.62.91,1.17.91h0c.32,0,.63-.13.86-.36,1.32-1.32,2.19-2.19,3.5-3.5.23-.23.36-.54.36-.86v-3.07c0-3.57-2.41-6.59-5.69-7.51Z"/>
      </g>
      <g>
        <circle class="cls-13" cx="792.62" cy="399.34" r="11.81"/>
        <path class="cls-12" d="M794.73,393.32h0s-1.76-3.04-1.76-3.04c-.16-.27-.55-.27-.7,0l-1.76,3.04h0c-3.28.92-5.69,3.93-5.69,7.51v3.07c0,.32.13.63.36.86,1.32,1.32,2.19,2.19,3.5,3.5.23.23.54.36.86.36h0c.56,0,1.04-.38,1.17-.92l.69-2.8c.06-.26-.13-.5-.39-.5h-1.52c-1.18,0-2.18-.97-2.15-2.15.02-1.14.96-2.07,2.11-2.07h6.28c1.18,0,2.18.97,2.15,2.15-.02,1.14-.96,2.07-2.11,2.07h-1.58c-.26,0-.46.25-.39.51l.7,2.8c.14.54.62.91,1.17.91h0c.32,0,.63-.13.86-.36,1.32-1.32,2.19-2.19,3.5-3.5.23-.23.36-.54.36-.86v-3.07c0-3.57-2.41-6.59-5.69-7.51Z"/>
      </g>
      <g>
        <circle class="cls-13" cx="723.57" cy="480.82" r="11.81"/>
        <path class="cls-12" d="M725.68,474.8h0s-1.76-3.04-1.76-3.04c-.16-.27-.55-.27-.7,0l-1.76,3.04h0c-3.28.92-5.69,3.93-5.69,7.51v3.07c0,.32.13.63.36.86,1.32,1.32,2.19,2.19,3.5,3.5.23.23.54.36.86.36h0c.56,0,1.04-.38,1.17-.92l.69-2.8c.06-.26-.13-.5-.39-.5h-1.52c-1.18,0-2.18-.97-2.15-2.15s.96-2.07,2.11-2.07h6.28c1.18,0,2.18.97,2.15,2.15s-.96,2.07-2.11,2.07h-1.58c-.26,0-.46.25-.39.51l.7,2.8c.14.54.62.91,1.17.91h0c.32,0,.63-.13.86-.36,1.32-1.32,2.19-2.19,3.5-3.5.23-.23.36-.54.36-.86v-3.07c0-3.57-2.41-6.59-5.69-7.51Z"/>
      </g>
      <g>
        <circle class="cls-13" cx="756.57" cy="470.1" r="11.81"/>
        <path class="cls-12" d="M758.68,464.07h0s-1.76-3.04-1.76-3.04c-.16-.27-.55-.27-.7,0l-1.76,3.04h0c-3.28.92-5.69,3.93-5.69,7.51v3.07c0,.32.13.63.36.86,1.32,1.32,2.19,2.19,3.5,3.5.23.23.54.36.86.36h0c.56,0,1.04-.38,1.17-.92l.69-2.8c.06-.26-.13-.5-.39-.5h-1.52c-1.18,0-2.18-.97-2.15-2.15s.96-2.07,2.11-2.07h6.28c1.18,0,2.18.97,2.15,2.15-.02,1.14-.96,2.07-2.11,2.07h-1.58c-.26,0-.46.25-.39.51l.7,2.8c.14.54.62.91,1.17.91h0c.32,0,.63-.13.86-.36,1.32-1.32,2.19-2.19,3.5-3.5.23-.23.36-.54.36-.86v-3.07c0-3.57-2.41-6.59-5.69-7.51Z"/>
      </g>
      <g>
        <circle class="cls-13" cx="870.78" cy="385.23" r="11.81"/>
        <path class="cls-12" d="M872.89,379.2h0s-1.76-3.04-1.76-3.04c-.16-.27-.55-.27-.7,0l-1.76,3.04h0c-3.28.92-5.69,3.93-5.69,7.51v3.07c0,.32.13.63.36.86,1.32,1.32,2.19,2.19,3.5,3.5.23.23.54.36.86.36h0c.56,0,1.04-.38,1.17-.92l.69-2.8c.06-.26-.13-.5-.39-.5h-1.52c-1.18,0-2.18-.97-2.15-2.15s.96-2.07,2.11-2.07h6.28c1.18,0,2.18.97,2.15,2.15s-.96,2.07-2.11,2.07h-1.58c-.26,0-.46.25-.39.51l.7,2.8c.14.54.62.91,1.17.91h0c.32,0,.63-.13.86-.36,1.32-1.32,2.19-2.19,3.5-3.5.23-.23.36-.54.36-.86v-3.07c0-3.57-2.41-6.59-5.69-7.51Z"/>
      </g>
      <g>
        <circle class="cls-13" cx="949.78" cy="407.32" r="11.81"/>
        <path class="cls-12" d="M951.89,401.3h0s-1.76-3.04-1.76-3.04c-.16-.27-.55-.27-.7,0l-1.76,3.04h0c-3.28.92-5.69,3.93-5.69,7.51v3.07c0,.32.13.63.36.86,1.32,1.32,2.19,2.19,3.5,3.5.23.23.54.36.86.36h0c.56,0,1.04-.38,1.17-.92l.69-2.8c.06-.26-.13-.5-.39-.5h-1.52c-1.18,0-2.18-.97-2.15-2.15s.96-2.07,2.11-2.07h6.28c1.18,0,2.18.97,2.15,2.15s-.96,2.07-2.11,2.07h-1.58c-.26,0-.46.25-.39.51l.7,2.8c.14.54.62.91,1.17.91h0c.32,0,.63-.13.86-.36,1.32-1.32,2.19-2.19,3.5-3.5.23-.23.36-.54.36-.86v-3.07c0-3.57-2.41-6.59-5.69-7.51Z"/>
      </g>
      <g>
        <circle class="cls-13" cx="670.17" cy="498.17" r="11.81"/>
        <circle class="cls-9" cx="670.17" cy="498.17" r="8.61"/>
        <path class="cls-5" d="M674.2,493.99l-2.83.76c-.09.03-.13.14-.06.21l2.07,2.07c.07.07.19.04.21-.06l.76-2.83c.03-.09-.06-.18-.16-.16Z"/>
        <path class="cls-5" d="M666.14,502.36l2.83-.76c.09-.03.13-.14.06-.21l-2.07-2.07c-.07-.07-.19-.04-.21.06l-.76,2.83c-.03.09.06.18.16.16Z"/>
      </g>
      <g>
        <circle class="cls-13" cx="898.87" cy="471.66" r="11.81"/>
        <g>
          <path class="cls-12" d="M905.51,465.58c.26-.26.26-.67,0-.93-.26-.26-.67-.26-.93,0l-5.25,5.25.93.93,5.25-5.25Z"/>
          <path class="cls-12" d="M906.31,477.8l-3.28-3.28,2.9-2.9c.26-.26.26-.67,0-.93s-.67-.26-.93,0l-2.9,2.9-1.83-1.83-.93.93,1.83,1.83-2.3,2.3-2.3-2.3,1.83-1.83-.93-.93-1.83,1.83-2.9-2.9c-.26-.26-.67-.26-.93,0s-.26.67,0,.93l2.9,2.9-3.28,3.28c-.26.26-.26.67,0,.93.13.13.3.19.47.19s.34-.06.47-.19l3.28-3.28,2.76,2.76s0,0,0,0c.04.04.08.07.12.09.11.07.23.1.35.1h0c.17,0,.34-.06.47-.19l2.76-2.76,3.28,3.28c.13.13.3.19.47.19s.34-.06.47-.19c.26-.26.26-.67,0-.93Z"/>
          <path class="cls-12" d="M893.16,464.65c-.26-.26-.67-.26-.93,0-.26.26-.26.67,0,.93l5.25,5.25.93-.93-5.25-5.25Z"/>
        </g>
      </g>
    </g>
    <g>
      <circle class="cls-13" cx="605.72" cy="450.01" r="19.1"/>
      <circle class="cls-11" cx="605.72" cy="450.01" r="13.93"/>
      <path class="cls-8" d="M619.65,450.01c-7.69,0-13.93-6.24-13.93-13.93,0,7.69-6.24,13.93-13.93,13.93,7.69,0,13.93,6.24,13.93,13.93,0-7.69,6.24-13.93,13.93-13.93Z"/>
    </g>
    <g>
      <circle class="cls-13" cx="474.28" cy="450.01" r="19.1"/>
      <circle class="cls-11" cx="474.28" cy="450.01" r="13.93"/>
      <path class="cls-8" d="M488.21,450.01c-7.69,0-13.93-6.24-13.93-13.93,0,7.69-6.24,13.93-13.93,13.93,7.69,0,13.93,6.24,13.93,13.93,0-7.69,6.24-13.93,13.93-13.93Z"/>
    </g>
    <g>
      <circle class="cls-13" cx="646.34" cy="575.02" r="19.1"/>
      <circle class="cls-11" cx="646.34" cy="575.02" r="13.93"/>
      <path class="cls-8" d="M660.28,575.02c-7.69,0-13.93-6.24-13.93-13.93,0,7.69-6.24,13.93-13.93,13.93,7.69,0,13.93,6.24,13.93,13.93,0-7.69,6.24-13.93,13.93-13.93Z"/>
    </g>
    <g>
      <circle class="cls-13" cx="433.66" cy="575.02" r="19.1"/>
      <circle class="cls-11" cx="433.66" cy="575.02" r="13.93"/>
      <path class="cls-8" d="M447.59,575.02c-7.69,0-13.93-6.24-13.93-13.93,0,7.69-6.24,13.93-13.93,13.93,7.69,0,13.93,6.24,13.93,13.93,0-7.69,6.24-13.93,13.93-13.93Z"/>
    </g>
    <g>
      <circle class="cls-13" cx="540" cy="652.28" r="19.1"/>
      <circle class="cls-11" cx="540" cy="652.28" r="13.93"/>
      <path class="cls-8" d="M553.93,652.28c-7.69,0-13.93-6.24-13.93-13.93,0,7.69-6.24,13.93-13.93,13.93,7.69,0,13.93,6.24,13.93,13.93,0-7.69,6.24-13.93,13.93-13.93Z"/>
    </g>
  </g>
  <g>
    <g>
      <g>
        <g>
          <path class="cls-12" d="M802.23,449.71s0,0,0,0c0,3.66-2.97,6.62-6.63,6.62s-6.62-2.96-6.63-6.62c0,0,0,0,0,0h13.24Z"/>
          <path class="cls-12" d="M804.08,449.71c0,4.71-3.87,8.54-8.59,8.47-4.65-.07-8.35-3.95-8.35-8.6M791.2,451.56s0,0,0,0c.73,1.72,2.43,2.93,4.41,2.93s3.68-1.21,4.41-2.93c0,0,0,0,0,0h-8.81Z"/>
        </g>
        <path class="cls-1" d="M795.14,438.49l-6.21,10.75c-.21.36.05.81.47.81h12.42c.42,0,.67-.45.47-.81l-6.21-10.75c-.21-.36-.73-.36-.93,0Z"/>
      </g>
      <g>
        <g>
          <path class="cls-12" d="M830.33,449.71s0,0,0,0c0,3.66-2.97,6.62-6.63,6.62s-6.62-2.96-6.63-6.62c0,0,0,0,0,0h13.24Z"/>
          <path class="cls-12" d="M832.18,449.71c0,4.71-3.87,8.54-8.59,8.47-4.65-.07-8.35-3.95-8.35-8.6M819.31,451.56s0,0,0,0c.73,1.72,2.43,2.93,4.41,2.93s3.68-1.21,4.41-2.93c0,0,0,0,0,0h-8.81Z"/>
        </g>
        <path class="cls-1" d="M823.24,438.49l-6.21,10.75c-.21.36.05.81.47.81h12.42c.42,0,.67-.45.47-.81l-6.21-10.75c-.21-.36-.73-.36-.93,0Z"/>
      </g>
    </g>
    <rect class="cls-12" x="795.61" y="436.5" width="28.1" height="3.45"/>
    <path class="cls-12" d="M814.81,468.04h-10.3c-1.04,0-1.88-.77-1.88-1.72h0c0-.95.84-1.72,1.88-1.72h10.3c1.04,0,1.88.77,1.88,1.72h0c0,.95-.84,1.72-1.88,1.72Z"/>
    <rect class="cls-12" x="807.94" y="438.22" width="3.45" height="28.1"/>
  </g>
  <g>
    <g>
      <rect class="cls-12" x="371.07" y="749.73" width="3.45" height="4.12" rx="1.72" ry="1.72"/>
      <rect class="cls-12" x="359.61" y="754.48" width="3.45" height="4.12" rx="1.72" ry="1.72" transform="translate(-429.12 477.08) rotate(-45)"/>
      <rect class="cls-12" x="354.52" y="766.28" width="4.12" height="3.45" rx="1.72" ry="1.72"/>
      <rect class="cls-12" x="386.94" y="766.28" width="4.12" height="3.45" rx="1.72" ry="1.72"/>
      <rect class="cls-12" x="382.19" y="754.82" width="4.12" height="3.45" rx="1.72" ry="1.72" transform="translate(-422.41 493.29) rotate(-45)"/>
    </g>
    <g>
      <path class="cls-10" d="M378.78,777.69v5.99c0,3.31-2.68,5.99-5.99,5.99h0c-3.31,0-5.99-2.68-5.99-5.99v-5.99"/>
      <path class="cls-3" d="M366.8,777.69c0-1.45-1.16-4.31-2.18-6.54-2.67-5.86,1.44-12.65,7.88-12.84.09,0,.19,0,.29,0s.19,0,.29,0c6.44.19,10.55,6.98,7.88,12.84-1.02,2.24-2.18,5.09-2.18,6.54"/>
    </g>
  </g>
  <g>
    <path class="cls-4" d="M253.6,435.85h10.7c12.01,0,21.76,9.75,21.76,21.76v10.7c0,.22-.17.39-.39.39h-10.7c-12.01,0-21.76-9.75-21.76-21.76v-10.7c0-.22.17-.39.39-.39Z" transform="translate(-250.14 368.11) rotate(-50)"/>
    <circle class="cls-4" cx="269.64" cy="452.27" r="8.99"/>
  </g>
  <path class="cls-12" d="M717.94,787.37c-.48-.27-.96-.58-1.44-.92-.9-.65-1.6-1.55-1.95-2.61-.64-1.93.23-3.18,1.03-4.03.21-.23.18-.59-.08-.77-.78-.55-1.06-.68-1.43-1.02-.44-.41-.13-1.47.72-1.92.17-.09.17-.34,0-.44-.56-.31-.55-.39-.92-1.01-.58-.96,1.38-.89.93-2.77-.06-.23-.27-.39-.51-.38-.73.02-1.39-.17-1.94-.43-1.18-.57-1.63-2.01-1-3.15,1.33-2.42,2.64-5.06,4.23-8.26.29-.57.33-1.25.09-1.84-.34-.83-.31-2.07,2.51-6.16.34-.49.18-1.16-.33-1.45-3.33-1.94-7.2-3.05-11.33-3.05s-8,1.11-11.33,3.05c-.51.3-.66.97-.33,1.45,2.82,4.09,2.85,5.33,2.51,6.16-.24.59-.2,1.27.09,1.84,1.6,3.2,2.9,5.85,4.23,8.26.63,1.14.17,2.59-1,3.15-.55.26-1.21.45-1.94.43-.24,0-.45.15-.51.38-.45,1.88,1.5,1.8.93,2.77-.37.62-.35.7-.92,1.01-.17.09-.18.34,0,.44.85.45,1.16,1.51.72,1.92-.38.35-.66.48-1.43,1.02-.25.18-.29.54-.08.77.8.85,1.67,2.1,1.03,4.03-.35,1.05-1.05,1.96-1.95,2.61-.48.35-.96.65-1.44.92-.68.38-.7,1.36-.02,1.76,3.35,1.98,7.26,3.12,11.44,3.12s8.09-1.14,11.44-3.12c.67-.4.66-1.38-.02-1.76Z"/>
  <g>
    <path class="cls-2" d="M540,256.39v13.95c0,.2-.16.36-.35.35-2.3-.09-6.87-.53-9.18-.53s-6.88.44-9.18.53c-.2,0-.35-.16-.35-.35v-13.95"/>
    <g>
      <path class="cls-2" d="M539.65,242.1c-2.3-.09-6.87-.53-9.18-.53s-6.88.44-9.18.53"/>
      <path class="cls-2" d="M539.65,242.1c.2,0,.35.16.35.35v13.95"/>
      <path class="cls-2" d="M520.93,256.4v-13.95c0-.2.16-.35.35-.35"/>
    </g>
    <g>
      <path class="cls-2" d="M559.07,256.39v13.95c0,.2-.16.36-.35.35-2.3-.09-6.87-.53-9.18-.53s-6.88.44-9.18.53c-.2,0-.35-.16-.35-.35v-13.95"/>
      <path class="cls-2" d="M558.72,242.1c-2.3-.09-6.87-.53-9.18-.53s-6.88.44-9.18.53"/>
      <path class="cls-2" d="M558.72,242.1c.2,0,.35.16.35.35v13.95"/>
      <path class="cls-2" d="M540,256.4v-13.95c0-.2.16-.35.35-.35"/>
    </g>
  </g>
  <g>
    <g>
      <g>
        <circle class="cls-13" cx="474.28" cy="450.01" r="19.1"/>
        <g>
          <path class="cls-12" d="M480.89,439.65h-13.23c-.87,0-1.57.71-1.57,1.57v1.77c0,1.99,1.62,3.6,3.6,3.6h9.16c1.99,0,3.6-1.62,3.6-3.6v-1.77c0-.87-.71-1.57-1.57-1.57Z"/>
          <path class="cls-12" d="M470.02,458.76c.59,0,1.06-.48,1.06-1.06v-8.97c0-.59-.48-1.06-1.06-1.06h0c-.59,0-1.06.48-1.06,1.06v8.97c0,.59.48,1.06,1.06,1.06h0Z"/>
          <path class="cls-12" d="M474.28,458.76c.59,0,1.06-.48,1.06-1.06v-8.97c0-.59-.48-1.06-1.06-1.06h0c-.59,0-1.06.48-1.06,1.06v8.97c0,.59.48,1.06,1.06,1.06h0Z"/>
          <rect class="cls-12" x="477.47" y="447.66" width="2.13" height="11.1" rx="1.06" ry="1.06"/>
          <path class="cls-12" d="M480.62,459.82h-12.68c-.59,0-1.06.48-1.06,1.06h0c0,.59.48,1.06,1.06,1.06h12.68c.59,0,1.06-.48,1.06-1.06h0c0-.59-.48-1.06-1.06-1.06Z"/>
        </g>
      </g>
      <g>
        <circle class="cls-13" cx="439.6" cy="450.01" r="7.29"/>
        <circle class="cls-13" cx="449.76" cy="425.49" r="7.29"/>
        <circle class="cls-13" cx="474.28" cy="415.33" r="7.29"/>
      </g>
    </g>
    <g>
      <g>
        <circle class="cls-13" cx="540" cy="652.28" r="19.1"/>
        <path class="cls-12" d="M534.07,649.9c-.78-.81-1.17-2-1.17-3.55,0-.97.13-1.78.37-2.42.25-.64.59-1.15,1.04-1.52s.98-.64,1.6-.78,1.31-.22,2.06-.22h6.25c.34,0,.61.27.61.61v19.78c0,.75-.61,1.36-1.36,1.36h0c-.75,0-1.36-.61-1.36-1.36v-17.05c0-.52-.42-.94-.94-.94h0c-.52,0-.94.42-.94.94v17.05c0,.75-.61,1.36-1.36,1.36h0c-.75,0-1.36-.61-1.36-1.36v-10.09c0-.32-.25-.59-.57-.61-1.26-.09-2.23-.49-2.91-1.2Z"/>
      </g>
      <g>
        <circle class="cls-13" cx="564.52" cy="676.8" r="7.29"/>
        <circle class="cls-13" cx="540" cy="686.96" r="7.29"/>
        <circle class="cls-13" cx="515.48" cy="676.8" r="7.29"/>
        <circle class="cls-13" cx="505.32" cy="652.28" r="7.29"/>
        <circle class="cls-13" cx="574.68" cy="652.28" r="7.29"/>
      </g>
    </g>
    <g>
      <g>
        <circle class="cls-13" cx="605.72" cy="450.01" r="19.1"/>
        <g>
          <circle class="cls-12" cx="605.72" cy="442.54" r="3.28"/>
          <path class="cls-12" d="M597.61,450.91c-.76.44-1.3,1.14-1.53,1.99-.23.85-.11,1.73.33,2.49s1.14,1.3,1.99,1.53c.28.08.57.11.85.11.57,0,1.13-.15,1.63-.44.76-.44,1.3-1.14,1.53-1.99.23-.85.11-1.73-.33-2.49-.9-1.57-2.91-2.1-4.48-1.2Z"/>
          <path class="cls-12" d="M615.36,452.9c-.23-.85-.77-1.55-1.53-1.99h0c-1.57-.9-3.57-.37-4.48,1.2-.44.76-.55,1.64-.33,2.49s.77,1.55,1.53,1.99c.51.29,1.07.44,1.63.44.28,0,.57-.04.85-.11.85-.23,1.55-.77,1.99-1.53.44-.76.55-1.64.33-2.49Z"/>
        </g>
      </g>
      <circle class="cls-13" cx="640.4" cy="450.01" r="7.29"/>
      <circle class="cls-13" cx="630.24" cy="425.49" r="7.29"/>
      <circle class="cls-13" cx="605.72" cy="415.33" r="7.29"/>
    </g>
    <g>
      <g>
        <circle class="cls-13" cx="646.34" cy="575.02" r="19.1"/>
        <g>
          <path class="cls-12" d="M652.68,584.83h-.79v-1.06c0-.59-.48-1.06-1.06-1.06h-8.97c-.59,0-1.06.48-1.06,1.06v1.06h-.79c-.59,0-1.06.48-1.06,1.06h0c0,.59.48,1.06,1.06,1.06h12.68c.59,0,1.06-.48,1.06-1.06h0c0-.59-.48-1.06-1.06-1.06Z"/>
          <path class="cls-12" d="M651.89,570.54h0c0-.59-.48-1.06-1.06-1.06h-8.97c-.59,0-1.06.48-1.06,1.06h0c0,.59.48,1.06,1.06,1.06h8.97c.59,0,1.06-.48,1.06-1.06Z"/>
          <rect class="cls-12" x="642.08" y="572.67" width="8.52" height="8.97" rx=".51" ry=".51"/>
          <path class="cls-12" d="M652.68,564.15h-1.39c-.28,0-.51.23-.51.51v1.11c0,.28-.23.51-.51.51h-1.95c-.28,0-.51-.23-.51-.51v-1.11c0-.28-.23-.51-.51-.51h-1.95c-.28,0-.51.23-.51.51v1.11c0,.28-.23.51-.51.51h-1.95c-.28,0-.51-.23-.51-.51v-1.11c0-.28-.23-.51-.51-.51h-1.39c-.59,0-1.06.48-1.06,1.06v2.13c0,.59.48,1.06,1.06,1.06h12.68c.59,0,1.06-.48,1.06-1.06v-2.13c0-.59-.48-1.06-1.06-1.06Z"/>
        </g>
      </g>
      <circle class="cls-13" cx="646.34" cy="609.7" r="7.29"/>
      <circle class="cls-13" cx="670.86" cy="599.54" r="7.29"/>
      <circle class="cls-13" cx="681.02" cy="575.02" r="7.29"/>
    </g>
    <g>
      <g>
        <circle class="cls-13" cx="433.66" cy="575.02" r="19.1"/>
        <path class="cls-12" d="M448.18,573.89l-6.74-4.87c-.43-.31-.99-.35-1.45-.11s-.76.72-.76,1.24v3.8h-11.11v-3.8c0-.53-.29-1-.76-1.24-.47-.24-1.03-.2-1.45.11l-6.74,4.87c-.36.26-.58.69-.58,1.13s.22.87.58,1.13l6.74,4.87c.24.18.53.27.82.27.22,0,.44-.05.64-.15.47-.24.76-.72.76-1.24v-3.8h11.11v3.8c0,.53.29,1,.76,1.24.2.1.42.15.64.15.29,0,.57-.09.82-.27l6.74-4.87c.36-.26.58-.69.58-1.13s-.22-.87-.58-1.13Z"/>
      </g>
      <g>
        <circle class="cls-13" cx="433.66" cy="609.7" r="7.29"/>
        <circle class="cls-13" cx="409.14" cy="599.54" r="7.29"/>
        <circle class="cls-13" cx="398.98" cy="575.02" r="7.29"/>
        <circle class="cls-13" cx="409.14" cy="550.5" r="7.29"/>
        <circle class="cls-13" cx="458.18" cy="599.54" r="7.29"/>
      </g>
    </g>
  </g>
</svg>